<?xml version="1.0" encoding="utf-8"?>
<!-- Generator: Adobe Illustrator 26.0.1, SVG Export Plug-In . SVG Version: 6.00 Build 0)  -->
<svg version="1.1" id="Layer_1" xmlns="http://www.w3.org/2000/svg" xmlns:xlink="http://www.w3.org/1999/xlink" x="0px" y="0px"
	 viewBox="0 0 612 453.45" style="enable-background:new 0 0 612 453.45;" xml:space="preserve">
<style type="text/css">
	.st0{fill:#1D1D1B;}
	.st1{fill:none;stroke:#1D1D1B;stroke-width:8;stroke-miterlimit:10;}
	.st2{fill:#FFFFFF;}
	.st3{fill:url(#SVGID_1_);}
	.st4{fill:url(#SVGID_00000165934248396802826920000015427231248808554145_);}
	.st5{fill:url(#SVGID_00000049938581084560452460000009947152369964535950_);}
	.st6{fill:url(#SVGID_00000060713553354358711410000000858521606722586262_);}
	.st7{fill:url(#SVGID_00000000936028164073606750000007447702734532828298_);}
	.st8{fill:url(#SVGID_00000062162799158284015260000003579718367545386895_);}
	.st9{fill:url(#SVGID_00000048485446076220124770000004968749446372949911_);}
	.st10{fill:url(#SVGID_00000023969399662973122210000018072099683395386255_);}
	.st11{fill:url(#SVGID_00000106831657301358045860000005541545367409709985_);}
	.st12{fill:url(#SVGID_00000014618155981250993700000000055517434155486870_);}
	.st13{fill:url(#SVGID_00000079449219294524977250000001058350571369809062_);}
	.st14{fill:url(#SVGID_00000039135057034968571230000005054817898290134440_);}
	.st15{fill:url(#SVGID_00000141443613673061952770000009607554584752534687_);}
	.st16{fill:url(#SVGID_00000094615233608342021200000003494029976605221771_);}
	.st17{fill:url(#SVGID_00000137119176250983355930000004601096991531394200_);}
	.st18{fill:url(#SVGID_00000101061773163305873620000008870021681743707025_);}
	.st19{fill:url(#SVGID_00000115507826602746688070000002720739815466641818_);}
	.st20{fill:url(#SVGID_00000019657245414350224120000003308020298808932797_);}
	.st21{fill:url(#SVGID_00000148630045367258935470000015244368576230247844_);}
	.st22{fill:url(#SVGID_00000014596285027494042540000001215364249166151055_);}
	.st23{fill:url(#SVGID_00000037651341481135914490000000665136679133855665_);}
	.st24{fill:url(#SVGID_00000007390621695472501080000008005426983603265690_);}
	.st25{fill:url(#SVGID_00000132047927622021443280000004864650804232269967_);}
	.st26{fill:url(#SVGID_00000129205997386585552780000008122465423587641757_);}
	.st27{fill:url(#SVGID_00000127024022381048845580000002194423736966506156_);}
	.st28{fill:url(#SVGID_00000026863084826604005810000006086417001892941454_);}
	.st29{fill:url(#SVGID_00000052081631265393543130000008001691642266187412_);}
	.st30{fill:url(#SVGID_00000007392066394464586770000003584328047488787644_);}
	.st31{fill:url(#SVGID_00000059990518014480232550000002252834715001789870_);}
	.st32{fill:url(#SVGID_00000176028305924628363890000010784688331074942861_);}
	.st33{fill:url(#SVGID_00000028324248785016622780000013063300713236619916_);}
	.st34{fill:url(#SVGID_00000162319508037819166030000011537278449474035107_);}
	.st35{fill:url(#SVGID_00000116226033358599295650000008230636099999951277_);}
	.st36{fill:url(#SVGID_00000124152038563054683400000017352805696913405870_);}
	.st37{fill:url(#SVGID_00000152976503488247332720000013160579052572071830_);}
	.st38{fill:url(#SVGID_00000108282899779206320440000001194165626125239699_);}
	.st39{fill:url(#SVGID_00000181806645031357949490000012334068241520826804_);}
	.st40{fill:url(#SVGID_00000057107050558305729010000011048945060299054269_);}
	.st41{fill:url(#SVGID_00000181075602476942951510000011084128162030427536_);}
	.st42{fill:url(#SVGID_00000032627164452817221950000013633889530412074401_);}
	.st43{fill:url(#SVGID_00000031202127610654339370000014434489857088020153_);}
	.st44{fill:url(#SVGID_00000096756461225378885320000010045707720790119300_);}
	.st45{fill:url(#SVGID_00000138567740587872697070000004531881281328876208_);}
</style>
<polygon class="st0" points="482.73,262.04 104.19,322.49 88.88,243.9 467.41,183.45 "/>
<g>
	<g>
		<g>
			<path class="st1" d="M115.02,318.04l-13.25-68.01l-10.1,1.61l-2.01-10.33l32.89-5.25l2.01,10.33l-9.7,1.55l13.25,68.01
				L115.02,318.04z"/>
			<path class="st1" d="M143.66,313.46l-2.96-80.3l17.35-2.77l28.35,76.25l-12.25,1.96l-4.78-13.65l-13.92,2.22l0.86,14.27
				L143.66,313.46z M166.13,285.6l-13.45-38.42l-0.2,0.03l2.37,40.19L166.13,285.6z"/>
			<path class="st1" d="M197.93,304.79l-15.27-78.34l10.29-1.64l27.44,44.08l-5.09-21.22l-5-25.64l11.81-1.89l15.27,78.34
				l-9.31,1.49l-28.25-45.65l4.74,20.45l5.47,28.09L197.93,304.79z"/>
			<path class="st1" d="M252.79,296.03l-15.27-78.34l19.36-3.09c6.34-1.01,11.27-0.05,14.79,2.89c3.52,2.94,5.93,7.72,7.22,14.34
				l6.94,35.33c1.54,7.89,1.23,13.91-0.93,18.05c-2.16,4.14-6.56,6.74-13.19,7.8L252.79,296.03z M264.12,284.68l4.31-0.69
				c2.42-0.39,4.04-1.38,4.85-2.98c0.82-1.6,0.86-4.3,0.12-8.1l-7.59-38.67c-0.79-4.06-1.9-6.87-3.33-8.42
				c-1.43-1.55-3.49-2.11-6.16-1.68l-3.87,0.62L264.12,284.68z"/>
			<path class="st1" d="M336.22,277.8c-2.27,4.25-6.72,6.9-13.33,7.96c-6.62,1.06-11.84-0.06-15.66-3.35
				c-3.83-3.29-6.48-8.75-7.97-16.38l-6.98-35.83c-2.8-14.36,2.26-22.57,15.16-24.63c6.67-1.06,11.82,0,15.45,3.18
				c3.64,3.18,6.14,8.31,7.52,15.37l6.98,35.83C338.89,267.6,338.5,273.55,336.22,277.8z M315.55,273.48
				c1.12,1.69,2.87,2.34,5.26,1.96c2.39-0.38,3.77-1.56,4.16-3.53c0.39-1.97,0.15-5.22-0.73-9.73l-7.11-36.5
				c-0.72-3.71-1.64-6.35-2.74-7.94c-1.1-1.58-2.77-2.2-5.01-1.84c-2.24,0.36-3.64,1.46-4.21,3.31c-0.57,1.85-0.49,4.61,0.23,8.29
				l7.12,36.54C313.42,268.65,314.43,271.79,315.55,273.48z"/>
			<path class="st1" d="M387.7,269.58c-2.27,4.25-6.72,6.9-13.33,7.96c-6.62,1.06-11.84-0.06-15.66-3.35
				c-3.83-3.29-6.48-8.75-7.97-16.37l-6.98-35.83c-2.8-14.36,2.26-22.57,15.16-24.64c6.67-1.06,11.82,0,15.45,3.18
				c3.64,3.18,6.14,8.31,7.52,15.37l6.98,35.83C390.36,259.38,389.97,265.33,387.7,269.58z M367.02,265.26
				c1.12,1.69,2.87,2.34,5.26,1.96c2.39-0.38,3.77-1.56,4.16-3.53c0.39-1.97,0.15-5.22-0.73-9.73l-7.11-36.5
				c-0.72-3.71-1.64-6.35-2.74-7.94c-1.1-1.58-2.77-2.2-5.01-1.84c-2.24,0.36-3.64,1.46-4.21,3.31c-0.57,1.85-0.49,4.61,0.23,8.29
				l7.12,36.54C364.89,260.43,365.9,263.57,367.02,265.26z"/>
			<path class="st1" d="M417.74,231.73l-4.25,0.5l7.21,36.99l-13.14,2.1l-15.27-78.34l21.71-3.47c4.51-0.72,8.03-0.43,10.58,0.86
				c2.54,1.29,4.45,3.36,5.73,6.2c1.28,2.84,2.38,6.64,3.31,11.4c0.93,4.76,1.08,8.48,0.45,11.15c-0.63,2.67-2.36,4.68-5.2,6.02
				c3.07,0,5.5,1.49,7.29,4.48c1.8,2.99,3.67,9.5,5.63,19.55c1.96,10.04,3.17,15.41,3.64,16.1l-13.14,2.1
				c-0.44-0.54-2.43-9.88-5.96-28.01c-0.68-3.47-1.58-5.71-2.72-6.7C422.49,231.66,420.53,231.35,417.74,231.73z M411.73,222.96
				l5.24-0.84c1.67-0.27,2.83-0.8,3.5-1.61c0.67-0.81,1-2.07,0.98-3.78c-0.01-1.71-0.35-4.27-1.02-7.69l-0.1-0.49
				c-0.83-4.24-1.76-6.96-2.8-8.13c-1.04-1.18-2.98-1.54-5.82-1.09l-4.46,0.71L411.73,222.96z"/>
			<path class="st1" d="M460.07,262.93l-15.27-78.34l13.14-2.1l15.27,78.34L460.07,262.93z"/>
		</g>
	</g>
</g>
<polygon class="st0" points="480.47,250.44 101.93,310.9 86.62,232.31 465.16,171.86 "/>
<g>
	<g>
		<g>
			<path class="st1" d="M112.76,309.17l-13.25-68.01l-10.1,1.61l-2.01-10.33l32.89-5.25l2.01,10.33l-9.7,1.55l13.25,68.01
				L112.76,309.17z"/>
			<path class="st1" d="M141.4,304.6l-2.96-80.3l17.35-2.77l28.35,76.25l-12.25,1.96l-4.78-13.65l-13.92,2.22l0.86,14.27
				L141.4,304.6z M163.87,276.73l-13.45-38.42l-0.2,0.03l2.37,40.19L163.87,276.73z"/>
			<path class="st1" d="M195.67,295.93l-15.27-78.34l10.29-1.64l27.44,44.08l-5.09-21.22l-5-25.64l11.81-1.89l15.27,78.34
				l-9.31,1.49l-28.25-45.65l4.74,20.45l5.47,28.09L195.67,295.93z"/>
			<path class="st1" d="M250.53,287.17l-15.27-78.34l19.36-3.09c6.34-1.01,11.27-0.05,14.79,2.89c3.52,2.94,5.93,7.72,7.22,14.34
				l6.94,35.33c1.54,7.89,1.23,13.91-0.93,18.05c-2.16,4.14-6.56,6.74-13.19,7.8L250.53,287.17z M261.86,275.81l4.31-0.69
				c2.42-0.39,4.04-1.38,4.85-2.98c0.82-1.6,0.86-4.3,0.12-8.1l-7.59-38.67c-0.79-4.06-1.9-6.87-3.33-8.42
				c-1.43-1.55-3.49-2.11-6.16-1.68l-3.87,0.62L261.86,275.81z"/>
			<path class="st1" d="M333.97,268.93c-2.27,4.25-6.72,6.9-13.33,7.96c-6.62,1.06-11.84-0.06-15.66-3.35
				c-3.83-3.29-6.48-8.75-7.97-16.37l-6.98-35.83c-2.8-14.36,2.26-22.57,15.16-24.63c6.67-1.06,11.82,0,15.45,3.18
				c3.64,3.18,6.14,8.31,7.52,15.37l6.98,35.83C336.63,258.73,336.24,264.69,333.97,268.93z M313.29,264.62
				c1.12,1.69,2.87,2.34,5.26,1.96c2.39-0.38,3.77-1.56,4.16-3.53c0.39-1.97,0.15-5.22-0.73-9.73l-7.11-36.5
				c-0.72-3.71-1.63-6.35-2.73-7.94c-1.1-1.58-2.77-2.2-5.01-1.84c-2.24,0.36-3.64,1.46-4.21,3.31c-0.57,1.85-0.49,4.61,0.23,8.29
				l7.12,36.54C311.16,259.79,312.17,262.93,313.29,264.62z"/>
			<path class="st1" d="M385.44,260.71c-2.27,4.25-6.72,6.9-13.33,7.96c-6.62,1.06-11.84-0.06-15.66-3.35
				c-3.82-3.29-6.48-8.75-7.97-16.37l-6.98-35.83c-2.8-14.36,2.26-22.57,15.16-24.63c6.67-1.06,11.82,0,15.45,3.18
				c3.63,3.18,6.14,8.31,7.52,15.37l6.98,35.83C388.11,250.51,387.72,256.47,385.44,260.71z M364.76,256.4
				c1.12,1.69,2.87,2.34,5.26,1.96c2.38-0.38,3.77-1.56,4.16-3.53c0.39-1.97,0.15-5.22-0.73-9.73l-7.11-36.5
				c-0.72-3.71-1.64-6.35-2.74-7.94c-1.1-1.58-2.77-2.2-5.01-1.84c-2.24,0.36-3.64,1.46-4.21,3.31c-0.57,1.85-0.49,4.61,0.23,8.29
				l7.12,36.54C362.64,251.57,363.64,254.71,364.76,256.4z"/>
			<path class="st1" d="M415.48,222.87l-4.25,0.49l7.21,36.99l-13.14,2.1l-15.27-78.34l21.71-3.47c4.51-0.72,8.04-0.43,10.58,0.86
				c2.54,1.29,4.45,3.36,5.73,6.2c1.28,2.84,2.38,6.64,3.31,11.4c0.93,4.76,1.08,8.48,0.45,11.15c-0.63,2.67-2.36,4.68-5.2,6.02
				c3.06,0,5.5,1.49,7.29,4.48c1.8,2.99,3.67,9.5,5.63,19.55c1.96,10.04,3.17,15.41,3.64,16.1l-13.14,2.1
				c-0.44-0.54-2.43-9.88-5.96-28.01c-0.68-3.47-1.58-5.71-2.72-6.7C420.23,222.79,418.27,222.49,415.48,222.87z M409.47,214.1
				l5.24-0.84c1.67-0.27,2.83-0.8,3.5-1.61c0.67-0.81,0.99-2.07,0.98-3.78c-0.01-1.71-0.35-4.27-1.02-7.69l-0.1-0.49
				c-0.83-4.24-1.76-6.95-2.8-8.13c-1.04-1.18-2.98-1.54-5.82-1.09l-4.46,0.71L409.47,214.1z"/>
			<path class="st1" d="M457.81,254.07l-15.27-78.34l13.14-2.1l15.27,78.34L457.81,254.07z"/>
		</g>
	</g>
</g>
<g>
	<g>
		<g>
			<g>
				<path class="st2" d="M112.76,309.17l-13.25-68.01l-10.1,1.61l-2.01-10.33l32.89-5.25l2.01,10.33l-9.7,1.55l13.25,68.01
					L112.76,309.17z"/>
				<path class="st2" d="M141.4,304.6l-2.96-80.3l17.35-2.77l28.35,76.25l-12.25,1.96l-4.78-13.65l-13.92,2.22l0.86,14.27
					L141.4,304.6z M163.87,276.73l-13.45-38.42l-0.2,0.03l2.37,40.19L163.87,276.73z"/>
				<path class="st2" d="M195.67,295.93l-15.27-78.34l10.29-1.64l27.44,44.08l-5.09-21.22l-5-25.64l11.81-1.89l15.27,78.34
					l-9.31,1.49l-28.25-45.65l4.74,20.45l5.47,28.09L195.67,295.93z"/>
				<path class="st2" d="M250.53,287.17l-15.27-78.34l19.36-3.09c6.34-1.01,11.27-0.05,14.79,2.89c3.52,2.94,5.93,7.72,7.22,14.34
					l6.94,35.33c1.54,7.89,1.23,13.91-0.93,18.05c-2.16,4.14-6.56,6.74-13.19,7.8L250.53,287.17z M261.86,275.81l4.31-0.69
					c2.42-0.39,4.04-1.38,4.85-2.98c0.82-1.6,0.86-4.3,0.12-8.1l-7.59-38.67c-0.79-4.06-1.9-6.87-3.33-8.42
					c-1.43-1.55-3.49-2.11-6.16-1.68l-3.87,0.62L261.86,275.81z"/>
				<path class="st2" d="M333.97,268.93c-2.27,4.25-6.72,6.9-13.33,7.96c-6.62,1.06-11.84-0.06-15.66-3.35
					c-3.83-3.29-6.48-8.75-7.97-16.37l-6.98-35.83c-2.8-14.36,2.26-22.57,15.16-24.63c6.67-1.06,11.82,0,15.45,3.18
					c3.64,3.18,6.14,8.31,7.52,15.37l6.98,35.83C336.63,258.73,336.24,264.69,333.97,268.93z M313.29,264.62
					c1.12,1.69,2.87,2.34,5.26,1.96c2.39-0.38,3.77-1.56,4.16-3.53c0.39-1.97,0.15-5.22-0.73-9.73l-7.11-36.5
					c-0.72-3.71-1.63-6.35-2.73-7.94c-1.1-1.58-2.77-2.2-5.01-1.84c-2.24,0.36-3.64,1.46-4.21,3.31c-0.57,1.85-0.49,4.61,0.23,8.29
					l7.12,36.54C311.16,259.79,312.17,262.93,313.29,264.62z"/>
				<path class="st2" d="M385.44,260.71c-2.27,4.25-6.72,6.9-13.33,7.96c-6.62,1.06-11.84-0.06-15.66-3.35
					c-3.82-3.29-6.48-8.75-7.97-16.37l-6.98-35.83c-2.8-14.36,2.26-22.57,15.16-24.63c6.67-1.06,11.82,0,15.45,3.18
					c3.63,3.18,6.14,8.31,7.52,15.37l6.98,35.83C388.11,250.51,387.72,256.47,385.44,260.71z M364.76,256.4
					c1.12,1.69,2.87,2.34,5.26,1.96c2.38-0.38,3.77-1.56,4.16-3.53c0.39-1.97,0.15-5.22-0.73-9.73l-7.11-36.5
					c-0.72-3.71-1.64-6.35-2.74-7.94c-1.1-1.58-2.77-2.2-5.01-1.84c-2.24,0.36-3.64,1.46-4.21,3.31c-0.57,1.85-0.49,4.61,0.23,8.29
					l7.12,36.54C362.64,251.57,363.64,254.71,364.76,256.4z"/>
				<path class="st2" d="M415.48,222.87l-4.25,0.49l7.21,36.99l-13.14,2.1l-15.27-78.34l21.71-3.47c4.51-0.72,8.04-0.43,10.58,0.86
					c2.54,1.29,4.45,3.36,5.73,6.2c1.28,2.84,2.38,6.64,3.31,11.4c0.93,4.76,1.08,8.48,0.45,11.15c-0.63,2.67-2.36,4.68-5.2,6.02
					c3.06,0,5.5,1.49,7.29,4.48c1.8,2.99,3.67,9.5,5.63,19.55c1.96,10.04,3.17,15.41,3.64,16.1l-13.14,2.1
					c-0.44-0.54-2.43-9.88-5.96-28.01c-0.68-3.47-1.58-5.71-2.72-6.7C420.23,222.79,418.27,222.49,415.48,222.87z M409.47,214.1
					l5.24-0.84c1.67-0.27,2.83-0.8,3.5-1.61c0.67-0.81,0.99-2.07,0.98-3.78c-0.01-1.71-0.35-4.27-1.02-7.69l-0.1-0.49
					c-0.83-4.24-1.76-6.95-2.8-8.13c-1.04-1.18-2.98-1.54-5.82-1.09l-4.46,0.71L409.47,214.1z"/>
				<path class="st2" d="M457.81,254.07l-15.27-78.34l13.14-2.1l15.27,78.34L457.81,254.07z"/>
			</g>
		</g>
	</g>
	<g>
		<g>
			<g>
				
					<linearGradient id="SVGID_1_" gradientUnits="userSpaceOnUse" x1="86.975" y1="245.7148" x2="470.619" y2="245.7148" gradientTransform="matrix(1 5.443906e-03 -5.443906e-03 1 1.7207 -5.8547)">
					<stop  offset="4.469418e-03" style="stop-color:#F89938"/>
					<stop  offset="0.1585" style="stop-color:#F59537"/>
					<stop  offset="0.3344" style="stop-color:#EF8A34"/>
					<stop  offset="0.521" style="stop-color:#E67830"/>
					<stop  offset="0.715" style="stop-color:#DB5E2C"/>
					<stop  offset="0.9129" style="stop-color:#D03928"/>
					<stop  offset="1" style="stop-color:#CA2026"/>
				</linearGradient>
				<path class="st3" d="M112.76,309.17l-13.25-68.01l-10.1,1.61l-2.01-10.33l32.89-5.25l2.01,10.33l-9.7,1.55l13.25,68.01
					L112.76,309.17z"/>
				
					<linearGradient id="SVGID_00000011007023476507276620000016316727483499538587_" gradientUnits="userSpaceOnUse" x1="86.975" y1="245.7148" x2="470.619" y2="245.7148" gradientTransform="matrix(1 5.443906e-03 -5.443906e-03 1 1.7207 -5.8547)">
					<stop  offset="4.469418e-03" style="stop-color:#F89938"/>
					<stop  offset="0.1585" style="stop-color:#F59537"/>
					<stop  offset="0.3344" style="stop-color:#EF8A34"/>
					<stop  offset="0.521" style="stop-color:#E67830"/>
					<stop  offset="0.715" style="stop-color:#DB5E2C"/>
					<stop  offset="0.9129" style="stop-color:#D03928"/>
					<stop  offset="1" style="stop-color:#CA2026"/>
				</linearGradient>
				<path style="fill:url(#SVGID_00000011007023476507276620000016316727483499538587_);" d="M141.4,304.6l-2.96-80.3l17.35-2.77
					l28.35,76.25l-12.25,1.96l-4.78-13.65l-13.92,2.22l0.86,14.27L141.4,304.6z M163.87,276.73l-13.45-38.42l-0.2,0.03l2.37,40.19
					L163.87,276.73z"/>
				
					<linearGradient id="SVGID_00000000198453235097805070000001726260567297044372_" gradientUnits="userSpaceOnUse" x1="86.975" y1="245.7148" x2="470.619" y2="245.7148" gradientTransform="matrix(1 5.443906e-03 -5.443906e-03 1 1.7207 -5.8547)">
					<stop  offset="4.469418e-03" style="stop-color:#F89938"/>
					<stop  offset="0.1585" style="stop-color:#F59537"/>
					<stop  offset="0.3344" style="stop-color:#EF8A34"/>
					<stop  offset="0.521" style="stop-color:#E67830"/>
					<stop  offset="0.715" style="stop-color:#DB5E2C"/>
					<stop  offset="0.9129" style="stop-color:#D03928"/>
					<stop  offset="1" style="stop-color:#CA2026"/>
				</linearGradient>
				<path style="fill:url(#SVGID_00000000198453235097805070000001726260567297044372_);" d="M195.67,295.93l-15.27-78.34
					l10.29-1.64l27.44,44.08l-5.09-21.22l-5-25.64l11.81-1.89l15.27,78.34l-9.31,1.49l-28.25-45.65l4.74,20.45l5.47,28.09
					L195.67,295.93z"/>
				
					<linearGradient id="SVGID_00000023959316987476364130000014130065301290435725_" gradientUnits="userSpaceOnUse" x1="86.975" y1="245.7148" x2="470.619" y2="245.7148" gradientTransform="matrix(1 5.443906e-03 -5.443906e-03 1 1.7207 -5.8547)">
					<stop  offset="4.469418e-03" style="stop-color:#F89938"/>
					<stop  offset="0.1585" style="stop-color:#F59537"/>
					<stop  offset="0.3344" style="stop-color:#EF8A34"/>
					<stop  offset="0.521" style="stop-color:#E67830"/>
					<stop  offset="0.715" style="stop-color:#DB5E2C"/>
					<stop  offset="0.9129" style="stop-color:#D03928"/>
					<stop  offset="1" style="stop-color:#CA2026"/>
				</linearGradient>
				<path style="fill:url(#SVGID_00000023959316987476364130000014130065301290435725_);" d="M250.53,287.17l-15.27-78.34
					l19.36-3.09c6.34-1.01,11.27-0.05,14.79,2.89c3.52,2.94,5.93,7.72,7.22,14.34l6.94,35.33c1.54,7.89,1.23,13.91-0.93,18.05
					c-2.16,4.14-6.56,6.74-13.19,7.8L250.53,287.17z M261.86,275.81l4.31-0.69c2.42-0.39,4.04-1.38,4.85-2.98
					c0.82-1.6,0.86-4.3,0.12-8.1l-7.59-38.67c-0.79-4.06-1.9-6.87-3.33-8.42c-1.43-1.55-3.49-2.11-6.16-1.68l-3.87,0.62
					L261.86,275.81z"/>
				
					<linearGradient id="SVGID_00000016043631498513368780000008206077372274336188_" gradientUnits="userSpaceOnUse" x1="86.975" y1="245.7148" x2="470.619" y2="245.7148" gradientTransform="matrix(1 5.443906e-03 -5.443906e-03 1 1.7207 -5.8547)">
					<stop  offset="4.469418e-03" style="stop-color:#F89938"/>
					<stop  offset="0.1585" style="stop-color:#F59537"/>
					<stop  offset="0.3344" style="stop-color:#EF8A34"/>
					<stop  offset="0.521" style="stop-color:#E67830"/>
					<stop  offset="0.715" style="stop-color:#DB5E2C"/>
					<stop  offset="0.9129" style="stop-color:#D03928"/>
					<stop  offset="1" style="stop-color:#CA2026"/>
				</linearGradient>
				<path style="fill:url(#SVGID_00000016043631498513368780000008206077372274336188_);" d="M333.97,268.93
					c-2.27,4.25-6.72,6.9-13.33,7.96c-6.62,1.06-11.84-0.06-15.66-3.35c-3.83-3.29-6.48-8.75-7.97-16.37l-6.98-35.83
					c-2.8-14.36,2.26-22.57,15.16-24.63c6.67-1.06,11.82,0,15.45,3.18c3.64,3.18,6.14,8.31,7.52,15.37l6.98,35.83
					C336.63,258.73,336.24,264.69,333.97,268.93z M313.29,264.62c1.12,1.69,2.87,2.34,5.26,1.96c2.39-0.38,3.77-1.56,4.16-3.53
					c0.39-1.97,0.15-5.22-0.73-9.73l-7.11-36.5c-0.72-3.71-1.63-6.35-2.73-7.94c-1.1-1.58-2.77-2.2-5.01-1.84
					c-2.24,0.36-3.64,1.46-4.21,3.31c-0.57,1.85-0.49,4.61,0.23,8.29l7.12,36.54C311.16,259.79,312.17,262.93,313.29,264.62z"/>
				
					<linearGradient id="SVGID_00000142895659888930103760000013440564938390953099_" gradientUnits="userSpaceOnUse" x1="86.975" y1="245.7148" x2="470.619" y2="245.7148" gradientTransform="matrix(1 5.443906e-03 -5.443906e-03 1 1.7207 -5.8547)">
					<stop  offset="4.469418e-03" style="stop-color:#F89938"/>
					<stop  offset="0.1585" style="stop-color:#F59537"/>
					<stop  offset="0.3344" style="stop-color:#EF8A34"/>
					<stop  offset="0.521" style="stop-color:#E67830"/>
					<stop  offset="0.715" style="stop-color:#DB5E2C"/>
					<stop  offset="0.9129" style="stop-color:#D03928"/>
					<stop  offset="1" style="stop-color:#CA2026"/>
				</linearGradient>
				<path style="fill:url(#SVGID_00000142895659888930103760000013440564938390953099_);" d="M385.44,260.71
					c-2.27,4.25-6.72,6.9-13.33,7.96c-6.62,1.06-11.84-0.06-15.66-3.35c-3.82-3.29-6.48-8.75-7.97-16.37l-6.98-35.83
					c-2.8-14.36,2.26-22.57,15.16-24.63c6.67-1.06,11.82,0,15.45,3.18c3.63,3.18,6.14,8.31,7.52,15.37l6.98,35.83
					C388.11,250.51,387.72,256.47,385.44,260.71z M364.76,256.4c1.12,1.69,2.87,2.34,5.26,1.96c2.38-0.38,3.77-1.56,4.16-3.53
					c0.39-1.97,0.15-5.22-0.73-9.73l-7.11-36.5c-0.72-3.71-1.64-6.35-2.74-7.94c-1.1-1.58-2.77-2.2-5.01-1.84
					c-2.24,0.36-3.64,1.46-4.21,3.31c-0.57,1.85-0.49,4.61,0.23,8.29l7.12,36.54C362.64,251.57,363.64,254.71,364.76,256.4z"/>
				
					<linearGradient id="SVGID_00000107553120556371576370000007601516874910147761_" gradientUnits="userSpaceOnUse" x1="86.975" y1="245.7148" x2="470.619" y2="245.7148" gradientTransform="matrix(1 5.443906e-03 -5.443906e-03 1 1.7207 -5.8547)">
					<stop  offset="4.469418e-03" style="stop-color:#F89938"/>
					<stop  offset="0.1585" style="stop-color:#F59537"/>
					<stop  offset="0.3344" style="stop-color:#EF8A34"/>
					<stop  offset="0.521" style="stop-color:#E67830"/>
					<stop  offset="0.715" style="stop-color:#DB5E2C"/>
					<stop  offset="0.9129" style="stop-color:#D03928"/>
					<stop  offset="1" style="stop-color:#CA2026"/>
				</linearGradient>
				<path style="fill:url(#SVGID_00000107553120556371576370000007601516874910147761_);" d="M415.48,222.87l-4.25,0.49l7.21,36.99
					l-13.14,2.1l-15.27-78.34l21.71-3.47c4.51-0.72,8.04-0.43,10.58,0.86c2.54,1.29,4.45,3.36,5.73,6.2
					c1.28,2.84,2.38,6.64,3.31,11.4c0.93,4.76,1.08,8.48,0.45,11.15c-0.63,2.67-2.36,4.68-5.2,6.02c3.06,0,5.5,1.49,7.29,4.48
					c1.8,2.99,3.67,9.5,5.63,19.55c1.96,10.04,3.17,15.41,3.64,16.1l-13.14,2.1c-0.44-0.54-2.43-9.88-5.96-28.01
					c-0.68-3.47-1.58-5.71-2.72-6.7C420.23,222.79,418.27,222.49,415.48,222.87z M409.47,214.1l5.24-0.84
					c1.67-0.27,2.83-0.8,3.5-1.61c0.67-0.81,0.99-2.07,0.98-3.78c-0.01-1.71-0.35-4.27-1.02-7.69l-0.1-0.49
					c-0.83-4.24-1.76-6.95-2.8-8.13c-1.04-1.18-2.98-1.54-5.82-1.09l-4.46,0.71L409.47,214.1z"/>
				
					<linearGradient id="SVGID_00000090999896071376277330000005969545973228435646_" gradientUnits="userSpaceOnUse" x1="86.975" y1="245.7148" x2="470.619" y2="245.7148" gradientTransform="matrix(1 5.443906e-03 -5.443906e-03 1 1.7207 -5.8547)">
					<stop  offset="4.469418e-03" style="stop-color:#F89938"/>
					<stop  offset="0.1585" style="stop-color:#F59537"/>
					<stop  offset="0.3344" style="stop-color:#EF8A34"/>
					<stop  offset="0.521" style="stop-color:#E67830"/>
					<stop  offset="0.715" style="stop-color:#DB5E2C"/>
					<stop  offset="0.9129" style="stop-color:#D03928"/>
					<stop  offset="1" style="stop-color:#CA2026"/>
				</linearGradient>
				<path style="fill:url(#SVGID_00000090999896071376277330000005969545973228435646_);" d="M457.81,254.07l-15.27-78.34l13.14-2.1
					l15.27,78.34L457.81,254.07z"/>
			</g>
			<g>
				
					<linearGradient id="SVGID_00000082335369571247645170000010143443693744371903_" gradientUnits="userSpaceOnUse" x1="86.975" y1="245.7148" x2="470.619" y2="245.7148" gradientTransform="matrix(1 5.443906e-03 -5.443906e-03 1 1.7207 -5.8547)">
					<stop  offset="4.469418e-03" style="stop-color:#F89938"/>
					<stop  offset="0.1585" style="stop-color:#F59537"/>
					<stop  offset="0.3344" style="stop-color:#EF8A34"/>
					<stop  offset="0.521" style="stop-color:#E67830"/>
					<stop  offset="0.715" style="stop-color:#DB5E2C"/>
					<stop  offset="0.9129" style="stop-color:#D03928"/>
					<stop  offset="1" style="stop-color:#CA2026"/>
				</linearGradient>
				<path style="fill:url(#SVGID_00000082335369571247645170000010143443693744371903_);" d="M112.76,309.17l-13.25-68.01
					l-10.1,1.61l-2.01-10.33l32.89-5.25l2.01,10.33l-9.7,1.55l13.25,68.01L112.76,309.17z"/>
				
					<linearGradient id="SVGID_00000041273063363663411480000000611738600903525782_" gradientUnits="userSpaceOnUse" x1="86.975" y1="245.7148" x2="470.619" y2="245.7148" gradientTransform="matrix(1 5.443906e-03 -5.443906e-03 1 1.7207 -5.8547)">
					<stop  offset="4.469418e-03" style="stop-color:#F89938"/>
					<stop  offset="0.1585" style="stop-color:#F59537"/>
					<stop  offset="0.3344" style="stop-color:#EF8A34"/>
					<stop  offset="0.521" style="stop-color:#E67830"/>
					<stop  offset="0.715" style="stop-color:#DB5E2C"/>
					<stop  offset="0.9129" style="stop-color:#D03928"/>
					<stop  offset="1" style="stop-color:#CA2026"/>
				</linearGradient>
				<path style="fill:url(#SVGID_00000041273063363663411480000000611738600903525782_);" d="M141.4,304.6l-2.96-80.3l17.35-2.77
					l28.35,76.25l-12.25,1.96l-4.78-13.65l-13.92,2.22l0.86,14.27L141.4,304.6z M163.87,276.73l-13.45-38.42l-0.2,0.03l2.37,40.19
					L163.87,276.73z"/>
				
					<linearGradient id="SVGID_00000057855412519725760020000009384773010018447292_" gradientUnits="userSpaceOnUse" x1="86.975" y1="245.7148" x2="470.619" y2="245.7148" gradientTransform="matrix(1 5.443906e-03 -5.443906e-03 1 1.7207 -5.8547)">
					<stop  offset="4.469418e-03" style="stop-color:#F89938"/>
					<stop  offset="0.1585" style="stop-color:#F59537"/>
					<stop  offset="0.3344" style="stop-color:#EF8A34"/>
					<stop  offset="0.521" style="stop-color:#E67830"/>
					<stop  offset="0.715" style="stop-color:#DB5E2C"/>
					<stop  offset="0.9129" style="stop-color:#D03928"/>
					<stop  offset="1" style="stop-color:#CA2026"/>
				</linearGradient>
				<path style="fill:url(#SVGID_00000057855412519725760020000009384773010018447292_);" d="M195.67,295.93l-15.27-78.34
					l10.29-1.64l27.44,44.08l-5.09-21.22l-5-25.64l11.81-1.89l15.27,78.34l-9.31,1.49l-28.25-45.65l4.74,20.45l5.47,28.09
					L195.67,295.93z"/>
				
					<linearGradient id="SVGID_00000072977029432538006740000012262266016742299323_" gradientUnits="userSpaceOnUse" x1="86.975" y1="245.7148" x2="470.619" y2="245.7148" gradientTransform="matrix(1 5.443906e-03 -5.443906e-03 1 1.7207 -5.8547)">
					<stop  offset="4.469418e-03" style="stop-color:#F89938"/>
					<stop  offset="0.1585" style="stop-color:#F59537"/>
					<stop  offset="0.3344" style="stop-color:#EF8A34"/>
					<stop  offset="0.521" style="stop-color:#E67830"/>
					<stop  offset="0.715" style="stop-color:#DB5E2C"/>
					<stop  offset="0.9129" style="stop-color:#D03928"/>
					<stop  offset="1" style="stop-color:#CA2026"/>
				</linearGradient>
				<path style="fill:url(#SVGID_00000072977029432538006740000012262266016742299323_);" d="M250.53,287.17l-15.27-78.34
					l19.36-3.09c6.34-1.01,11.27-0.05,14.79,2.89c3.52,2.94,5.93,7.72,7.22,14.34l6.94,35.33c1.54,7.89,1.23,13.91-0.93,18.05
					c-2.16,4.14-6.56,6.74-13.19,7.8L250.53,287.17z M261.86,275.81l4.31-0.69c2.42-0.39,4.04-1.38,4.85-2.98
					c0.82-1.6,0.86-4.3,0.12-8.1l-7.59-38.67c-0.79-4.06-1.9-6.87-3.33-8.42c-1.43-1.55-3.49-2.11-6.16-1.68l-3.87,0.62
					L261.86,275.81z"/>
				
					<linearGradient id="SVGID_00000147187798335934396560000015436349182782249904_" gradientUnits="userSpaceOnUse" x1="86.975" y1="245.7148" x2="470.619" y2="245.7148" gradientTransform="matrix(1 5.443906e-03 -5.443906e-03 1 1.7207 -5.8547)">
					<stop  offset="4.469418e-03" style="stop-color:#F89938"/>
					<stop  offset="0.1585" style="stop-color:#F59537"/>
					<stop  offset="0.3344" style="stop-color:#EF8A34"/>
					<stop  offset="0.521" style="stop-color:#E67830"/>
					<stop  offset="0.715" style="stop-color:#DB5E2C"/>
					<stop  offset="0.9129" style="stop-color:#D03928"/>
					<stop  offset="1" style="stop-color:#CA2026"/>
				</linearGradient>
				<path style="fill:url(#SVGID_00000147187798335934396560000015436349182782249904_);" d="M333.97,268.93
					c-2.27,4.25-6.72,6.9-13.33,7.96c-6.62,1.06-11.84-0.06-15.66-3.35c-3.83-3.29-6.48-8.75-7.97-16.37l-6.98-35.83
					c-2.8-14.36,2.26-22.57,15.16-24.63c6.67-1.06,11.82,0,15.45,3.18c3.64,3.18,6.14,8.31,7.52,15.37l6.98,35.83
					C336.63,258.73,336.24,264.69,333.97,268.93z M313.29,264.62c1.12,1.69,2.87,2.34,5.26,1.96c2.39-0.38,3.77-1.56,4.16-3.53
					c0.39-1.97,0.15-5.22-0.73-9.73l-7.11-36.5c-0.72-3.71-1.63-6.35-2.73-7.94c-1.1-1.58-2.77-2.2-5.01-1.84
					c-2.24,0.36-3.64,1.46-4.21,3.31c-0.57,1.85-0.49,4.61,0.23,8.29l7.12,36.54C311.16,259.79,312.17,262.93,313.29,264.62z"/>
				
					<linearGradient id="SVGID_00000031182059434793089460000004468613829520636829_" gradientUnits="userSpaceOnUse" x1="86.975" y1="245.7148" x2="470.619" y2="245.7148" gradientTransform="matrix(1 5.443906e-03 -5.443906e-03 1 1.7207 -5.8547)">
					<stop  offset="4.469418e-03" style="stop-color:#F89938"/>
					<stop  offset="0.1585" style="stop-color:#F59537"/>
					<stop  offset="0.3344" style="stop-color:#EF8A34"/>
					<stop  offset="0.521" style="stop-color:#E67830"/>
					<stop  offset="0.715" style="stop-color:#DB5E2C"/>
					<stop  offset="0.9129" style="stop-color:#D03928"/>
					<stop  offset="1" style="stop-color:#CA2026"/>
				</linearGradient>
				<path style="fill:url(#SVGID_00000031182059434793089460000004468613829520636829_);" d="M385.44,260.71
					c-2.27,4.25-6.72,6.9-13.33,7.96c-6.62,1.06-11.84-0.06-15.66-3.35c-3.82-3.29-6.48-8.75-7.97-16.37l-6.98-35.83
					c-2.8-14.36,2.26-22.57,15.16-24.63c6.67-1.06,11.82,0,15.45,3.18c3.63,3.18,6.14,8.31,7.52,15.37l6.98,35.83
					C388.11,250.51,387.72,256.47,385.44,260.71z M364.76,256.4c1.12,1.69,2.87,2.34,5.26,1.96c2.38-0.38,3.77-1.56,4.16-3.53
					c0.39-1.97,0.15-5.22-0.73-9.73l-7.11-36.5c-0.72-3.71-1.64-6.35-2.74-7.94c-1.1-1.58-2.77-2.2-5.01-1.84
					c-2.24,0.36-3.64,1.46-4.21,3.31c-0.57,1.85-0.49,4.61,0.23,8.29l7.12,36.54C362.64,251.57,363.64,254.71,364.76,256.4z"/>
				
					<linearGradient id="SVGID_00000177471725245760527150000006803180849641849000_" gradientUnits="userSpaceOnUse" x1="86.975" y1="245.7148" x2="470.619" y2="245.7148" gradientTransform="matrix(1 5.443906e-03 -5.443906e-03 1 1.7207 -5.8547)">
					<stop  offset="4.469418e-03" style="stop-color:#F89938"/>
					<stop  offset="0.1585" style="stop-color:#F59537"/>
					<stop  offset="0.3344" style="stop-color:#EF8A34"/>
					<stop  offset="0.521" style="stop-color:#E67830"/>
					<stop  offset="0.715" style="stop-color:#DB5E2C"/>
					<stop  offset="0.9129" style="stop-color:#D03928"/>
					<stop  offset="1" style="stop-color:#CA2026"/>
				</linearGradient>
				<path style="fill:url(#SVGID_00000177471725245760527150000006803180849641849000_);" d="M415.48,222.87l-4.25,0.49l7.21,36.99
					l-13.14,2.1l-15.27-78.34l21.71-3.47c4.51-0.72,8.04-0.43,10.58,0.86c2.54,1.29,4.45,3.36,5.73,6.2
					c1.28,2.84,2.38,6.64,3.31,11.4c0.93,4.76,1.08,8.48,0.45,11.15c-0.63,2.67-2.36,4.68-5.2,6.02c3.06,0,5.5,1.49,7.29,4.48
					c1.8,2.99,3.67,9.5,5.63,19.55c1.96,10.04,3.17,15.41,3.64,16.1l-13.14,2.1c-0.44-0.54-2.43-9.88-5.96-28.01
					c-0.68-3.47-1.58-5.71-2.72-6.7C420.23,222.79,418.27,222.49,415.48,222.87z M409.47,214.1l5.24-0.84
					c1.67-0.27,2.83-0.8,3.5-1.61c0.67-0.81,0.99-2.07,0.98-3.78c-0.01-1.71-0.35-4.27-1.02-7.69l-0.1-0.49
					c-0.83-4.24-1.76-6.95-2.8-8.13c-1.04-1.18-2.98-1.54-5.82-1.09l-4.46,0.71L409.47,214.1z"/>
				
					<linearGradient id="SVGID_00000101089745265064440100000002005086619542144133_" gradientUnits="userSpaceOnUse" x1="86.975" y1="245.7148" x2="470.619" y2="245.7148" gradientTransform="matrix(1 5.443906e-03 -5.443906e-03 1 1.7207 -5.8547)">
					<stop  offset="4.469418e-03" style="stop-color:#F89938"/>
					<stop  offset="0.1585" style="stop-color:#F59537"/>
					<stop  offset="0.3344" style="stop-color:#EF8A34"/>
					<stop  offset="0.521" style="stop-color:#E67830"/>
					<stop  offset="0.715" style="stop-color:#DB5E2C"/>
					<stop  offset="0.9129" style="stop-color:#D03928"/>
					<stop  offset="1" style="stop-color:#CA2026"/>
				</linearGradient>
				<path style="fill:url(#SVGID_00000101089745265064440100000002005086619542144133_);" d="M457.81,254.07l-15.27-78.34l13.14-2.1
					l15.27,78.34L457.81,254.07z"/>
			</g>
			<g>
				
					<linearGradient id="SVGID_00000011719685811954829190000014739662889812738182_" gradientUnits="userSpaceOnUse" x1="86.975" y1="245.7148" x2="470.619" y2="245.7148" gradientTransform="matrix(1 5.443906e-03 -5.443906e-03 1 1.7207 -5.8547)">
					<stop  offset="4.469418e-03" style="stop-color:#F89938"/>
					<stop  offset="0.1585" style="stop-color:#F59537"/>
					<stop  offset="0.3344" style="stop-color:#EF8A34"/>
					<stop  offset="0.521" style="stop-color:#E67830"/>
					<stop  offset="0.715" style="stop-color:#DB5E2C"/>
					<stop  offset="0.9129" style="stop-color:#D03928"/>
					<stop  offset="1" style="stop-color:#CA2026"/>
				</linearGradient>
				<path style="fill:url(#SVGID_00000011719685811954829190000014739662889812738182_);" d="M112.76,309.17l-13.25-68.01
					l-10.1,1.61l-2.01-10.33l32.89-5.25l2.01,10.33l-9.7,1.55l13.25,68.01L112.76,309.17z"/>
				
					<linearGradient id="SVGID_00000070798510618866476340000002797058449964920235_" gradientUnits="userSpaceOnUse" x1="86.975" y1="245.7148" x2="470.619" y2="245.7148" gradientTransform="matrix(1 5.443906e-03 -5.443906e-03 1 1.7207 -5.8547)">
					<stop  offset="4.469418e-03" style="stop-color:#F89938"/>
					<stop  offset="0.1585" style="stop-color:#F59537"/>
					<stop  offset="0.3344" style="stop-color:#EF8A34"/>
					<stop  offset="0.521" style="stop-color:#E67830"/>
					<stop  offset="0.715" style="stop-color:#DB5E2C"/>
					<stop  offset="0.9129" style="stop-color:#D03928"/>
					<stop  offset="1" style="stop-color:#CA2026"/>
				</linearGradient>
				<path style="fill:url(#SVGID_00000070798510618866476340000002797058449964920235_);" d="M141.4,304.6l-2.96-80.3l17.35-2.77
					l28.35,76.25l-12.25,1.96l-4.78-13.65l-13.92,2.22l0.86,14.27L141.4,304.6z M163.87,276.73l-13.45-38.42l-0.2,0.03l2.37,40.19
					L163.87,276.73z"/>
				
					<linearGradient id="SVGID_00000010303624482054017480000006956003954464051584_" gradientUnits="userSpaceOnUse" x1="86.975" y1="245.7148" x2="470.619" y2="245.7148" gradientTransform="matrix(1 5.443906e-03 -5.443906e-03 1 1.7207 -5.8547)">
					<stop  offset="4.469418e-03" style="stop-color:#F89938"/>
					<stop  offset="0.1585" style="stop-color:#F59537"/>
					<stop  offset="0.3344" style="stop-color:#EF8A34"/>
					<stop  offset="0.521" style="stop-color:#E67830"/>
					<stop  offset="0.715" style="stop-color:#DB5E2C"/>
					<stop  offset="0.9129" style="stop-color:#D03928"/>
					<stop  offset="1" style="stop-color:#CA2026"/>
				</linearGradient>
				<path style="fill:url(#SVGID_00000010303624482054017480000006956003954464051584_);" d="M195.67,295.93l-15.27-78.34
					l10.29-1.64l27.44,44.08l-5.09-21.22l-5-25.64l11.81-1.89l15.27,78.34l-9.31,1.49l-28.25-45.65l4.74,20.45l5.47,28.09
					L195.67,295.93z"/>
				
					<linearGradient id="SVGID_00000090989558070144709360000013985630370041089174_" gradientUnits="userSpaceOnUse" x1="86.975" y1="245.7148" x2="470.619" y2="245.7148" gradientTransform="matrix(1 5.443906e-03 -5.443906e-03 1 1.7207 -5.8547)">
					<stop  offset="4.469418e-03" style="stop-color:#F89938"/>
					<stop  offset="0.1585" style="stop-color:#F59537"/>
					<stop  offset="0.3344" style="stop-color:#EF8A34"/>
					<stop  offset="0.521" style="stop-color:#E67830"/>
					<stop  offset="0.715" style="stop-color:#DB5E2C"/>
					<stop  offset="0.9129" style="stop-color:#D03928"/>
					<stop  offset="1" style="stop-color:#CA2026"/>
				</linearGradient>
				<path style="fill:url(#SVGID_00000090989558070144709360000013985630370041089174_);" d="M250.53,287.17l-15.27-78.34
					l19.36-3.09c6.34-1.01,11.27-0.05,14.79,2.89c3.52,2.94,5.93,7.72,7.22,14.34l6.94,35.33c1.54,7.89,1.23,13.91-0.93,18.05
					c-2.16,4.14-6.56,6.74-13.19,7.8L250.53,287.17z M261.86,275.81l4.31-0.69c2.42-0.39,4.04-1.38,4.85-2.98
					c0.82-1.6,0.86-4.3,0.12-8.1l-7.59-38.67c-0.79-4.06-1.9-6.87-3.33-8.42c-1.43-1.55-3.49-2.11-6.16-1.68l-3.87,0.62
					L261.86,275.81z"/>
				
					<linearGradient id="SVGID_00000023966233651440434470000009748969789859290512_" gradientUnits="userSpaceOnUse" x1="86.975" y1="245.7148" x2="470.619" y2="245.7148" gradientTransform="matrix(1 5.443906e-03 -5.443906e-03 1 1.7207 -5.8547)">
					<stop  offset="4.469418e-03" style="stop-color:#F89938"/>
					<stop  offset="0.1585" style="stop-color:#F59537"/>
					<stop  offset="0.3344" style="stop-color:#EF8A34"/>
					<stop  offset="0.521" style="stop-color:#E67830"/>
					<stop  offset="0.715" style="stop-color:#DB5E2C"/>
					<stop  offset="0.9129" style="stop-color:#D03928"/>
					<stop  offset="1" style="stop-color:#CA2026"/>
				</linearGradient>
				<path style="fill:url(#SVGID_00000023966233651440434470000009748969789859290512_);" d="M333.97,268.93
					c-2.27,4.25-6.72,6.9-13.33,7.96c-6.62,1.06-11.84-0.06-15.66-3.35c-3.83-3.29-6.48-8.75-7.97-16.37l-6.98-35.83
					c-2.8-14.36,2.26-22.57,15.16-24.63c6.67-1.06,11.82,0,15.45,3.18c3.64,3.18,6.14,8.31,7.52,15.37l6.98,35.83
					C336.63,258.73,336.24,264.69,333.97,268.93z M313.29,264.62c1.12,1.69,2.87,2.34,5.26,1.96c2.39-0.38,3.77-1.56,4.16-3.53
					c0.39-1.97,0.15-5.22-0.73-9.73l-7.11-36.5c-0.72-3.71-1.63-6.35-2.73-7.94c-1.1-1.58-2.77-2.2-5.01-1.84
					c-2.24,0.36-3.64,1.46-4.21,3.31c-0.57,1.85-0.49,4.61,0.23,8.29l7.12,36.54C311.16,259.79,312.17,262.93,313.29,264.62z"/>
				
					<linearGradient id="SVGID_00000183947395715322978210000007174524194105508259_" gradientUnits="userSpaceOnUse" x1="86.975" y1="245.7148" x2="470.619" y2="245.7148" gradientTransform="matrix(1 5.443906e-03 -5.443906e-03 1 1.7207 -5.8547)">
					<stop  offset="4.469418e-03" style="stop-color:#F89938"/>
					<stop  offset="0.1585" style="stop-color:#F59537"/>
					<stop  offset="0.3344" style="stop-color:#EF8A34"/>
					<stop  offset="0.521" style="stop-color:#E67830"/>
					<stop  offset="0.715" style="stop-color:#DB5E2C"/>
					<stop  offset="0.9129" style="stop-color:#D03928"/>
					<stop  offset="1" style="stop-color:#CA2026"/>
				</linearGradient>
				<path style="fill:url(#SVGID_00000183947395715322978210000007174524194105508259_);" d="M385.44,260.71
					c-2.27,4.25-6.72,6.9-13.33,7.96c-6.62,1.06-11.84-0.06-15.66-3.35c-3.82-3.29-6.48-8.75-7.97-16.37l-6.98-35.83
					c-2.8-14.36,2.26-22.57,15.16-24.63c6.67-1.06,11.82,0,15.45,3.18c3.63,3.18,6.14,8.31,7.52,15.37l6.98,35.83
					C388.11,250.51,387.72,256.47,385.44,260.71z M364.76,256.4c1.12,1.69,2.87,2.34,5.26,1.96c2.38-0.38,3.77-1.56,4.16-3.53
					c0.39-1.97,0.15-5.22-0.73-9.73l-7.11-36.5c-0.72-3.71-1.64-6.35-2.74-7.94c-1.1-1.58-2.77-2.2-5.01-1.84
					c-2.24,0.36-3.64,1.46-4.21,3.31c-0.57,1.85-0.49,4.61,0.23,8.29l7.12,36.54C362.64,251.57,363.64,254.71,364.76,256.4z"/>
				
					<linearGradient id="SVGID_00000103250550052644584090000011792324246687227327_" gradientUnits="userSpaceOnUse" x1="86.975" y1="245.7148" x2="470.619" y2="245.7148" gradientTransform="matrix(1 5.443906e-03 -5.443906e-03 1 1.7207 -5.8547)">
					<stop  offset="4.469418e-03" style="stop-color:#F89938"/>
					<stop  offset="0.1585" style="stop-color:#F59537"/>
					<stop  offset="0.3344" style="stop-color:#EF8A34"/>
					<stop  offset="0.521" style="stop-color:#E67830"/>
					<stop  offset="0.715" style="stop-color:#DB5E2C"/>
					<stop  offset="0.9129" style="stop-color:#D03928"/>
					<stop  offset="1" style="stop-color:#CA2026"/>
				</linearGradient>
				<path style="fill:url(#SVGID_00000103250550052644584090000011792324246687227327_);" d="M415.48,222.87l-4.25,0.49l7.21,36.99
					l-13.14,2.1l-15.27-78.34l21.71-3.47c4.51-0.72,8.04-0.43,10.58,0.86c2.54,1.29,4.45,3.36,5.73,6.2
					c1.28,2.84,2.38,6.64,3.31,11.4c0.93,4.76,1.08,8.48,0.45,11.15c-0.63,2.67-2.36,4.68-5.2,6.02c3.06,0,5.5,1.49,7.29,4.48
					c1.8,2.99,3.67,9.5,5.63,19.55c1.96,10.04,3.17,15.41,3.64,16.1l-13.14,2.1c-0.44-0.54-2.43-9.88-5.96-28.01
					c-0.68-3.47-1.58-5.71-2.72-6.7C420.23,222.79,418.27,222.49,415.48,222.87z M409.47,214.1l5.24-0.84
					c1.67-0.27,2.83-0.8,3.5-1.61c0.67-0.81,0.99-2.07,0.98-3.78c-0.01-1.71-0.35-4.27-1.02-7.69l-0.1-0.49
					c-0.83-4.24-1.76-6.95-2.8-8.13c-1.04-1.18-2.98-1.54-5.82-1.09l-4.46,0.71L409.47,214.1z"/>
				
					<linearGradient id="SVGID_00000165949431970066161350000005408448115009028280_" gradientUnits="userSpaceOnUse" x1="86.975" y1="245.7148" x2="470.619" y2="245.7148" gradientTransform="matrix(1 5.443906e-03 -5.443906e-03 1 1.7207 -5.8547)">
					<stop  offset="4.469418e-03" style="stop-color:#F89938"/>
					<stop  offset="0.1585" style="stop-color:#F59537"/>
					<stop  offset="0.3344" style="stop-color:#EF8A34"/>
					<stop  offset="0.521" style="stop-color:#E67830"/>
					<stop  offset="0.715" style="stop-color:#DB5E2C"/>
					<stop  offset="0.9129" style="stop-color:#D03928"/>
					<stop  offset="1" style="stop-color:#CA2026"/>
				</linearGradient>
				<path style="fill:url(#SVGID_00000165949431970066161350000005408448115009028280_);" d="M457.81,254.07l-15.27-78.34l13.14-2.1
					l15.27,78.34L457.81,254.07z"/>
			</g>
		</g>
	</g>
</g>
<g>
	<g>
		<g>
			<g>
				<g>
					<path class="st2" d="M218.95,323.94l5.87-0.94l17.23,20.06l-0.98-22.65l6.57-1.05l1.47,33.32l-5.75,0.92l-17.45-20.27
						l0.99,22.9l-6.46,1.03L218.95,323.94z"/>
					<path class="st2" d="M256.85,317.89l6.58-1.05l1.32,33.34l-6.46,1.03L256.85,317.89z"/>
					<path class="st2" d="M304.47,316.55l-4.96,4.2c-1.95-1.42-3.75-2.34-5.39-2.76c-1.64-0.41-3.42-0.47-5.33-0.16
						c-4.14,0.66-7.22,2.71-9.23,6.15c-1.59,2.73-2.11,5.57-1.53,8.5c0.56,2.89,2.1,5.15,4.6,6.77c2.5,1.62,5.3,2.19,8.41,1.69
						c2.31-0.37,4.31-1.21,6-2.53c1.69-1.32,2.94-3.08,3.75-5.3l-11.18,1.79l-0.3-5.91l18.13-2.89c0.79,5.42-0.23,9.99-3.07,13.71
						c-2.83,3.71-6.92,6-12.27,6.85c-5.81,0.93-10.74-0.17-14.78-3.3c-3.25-2.51-5.27-5.79-6.06-9.84
						c-0.96-4.94,0.17-9.52,3.39-13.75c3.22-4.22,7.54-6.77,12.97-7.64c2.01-0.32,4.03-0.37,6.05-0.14c2.02,0.23,3.9,0.7,5.63,1.41
						C301.01,314.11,302.74,315.16,304.47,316.55z"/>
					<path class="st2" d="M315.44,308.53l6.75-1.08l0.53,12.58l12.29-1.96l-0.54-12.57l6.77-1.08l1.4,33.33l-6.73,1.07l-0.66-15.13
						l-12.3,1.96l0.63,15.14l-6.7,1.07L315.44,308.53z"/>
					<path class="st2" d="M346,303.65l21.88-3.49l0.35,5.92l-7.47,1.19l1.19,27.39l-6.68,1.07l-1.19-27.39l-7.78,1.24L346,303.65z"
						/>
					<path class="st2" d="M391.93,300.99l-4.13,4.72c-2.47-2.04-4.58-2.92-6.32-2.64c-0.86,0.14-1.53,0.48-2.01,1.04
						s-0.65,1.16-0.53,1.81c0.12,0.6,0.51,1.23,1.17,1.89c0.66,0.65,2.56,2.03,5.68,4.13c1.66,1.12,2.76,1.92,3.31,2.41
						c1.31,1.13,2.3,2.22,2.99,3.28c0.68,1.05,1.14,2.16,1.36,3.33c0.51,2.61-0.09,4.96-1.79,7.06c-1.7,2.1-4.15,3.4-7.35,3.91
						c-4.87,0.78-9.25-0.69-13.14-4.4l4.43-4.61c2.64,2.54,5.17,3.62,7.59,3.24c1.15-0.18,2.06-0.68,2.71-1.48
						c0.66-0.8,0.89-1.69,0.7-2.65c-0.15-0.75-0.54-1.48-1.17-2.19c-0.63-0.71-2.29-1.96-4.97-3.77c-2.83-1.9-4.74-3.38-5.71-4.43
						c-1.31-1.42-2.12-2.88-2.42-4.4c-0.39-2.01-0.02-3.92,1.12-5.74c1.43-2.28,3.69-3.67,6.78-4.16
						C384.48,296.66,388.38,297.88,391.93,300.99z"/>
				</g>
			</g>
		</g>
		<g>
			<g>
				<g>
					<path d="M218.95,323.94l5.87-0.94l17.23,20.06l-0.98-22.65l6.57-1.05l1.47,33.32l-5.75,0.92l-17.45-20.27l0.99,22.9l-6.46,1.03
						L218.95,323.94z"/>
					<path d="M256.85,317.89l6.58-1.05l1.32,33.34l-6.46,1.03L256.85,317.89z"/>
					<path d="M304.47,316.55l-4.96,4.2c-1.95-1.42-3.75-2.34-5.39-2.76c-1.64-0.41-3.42-0.47-5.33-0.16
						c-4.14,0.66-7.22,2.71-9.23,6.15c-1.59,2.73-2.11,5.57-1.53,8.5c0.56,2.89,2.1,5.15,4.6,6.77c2.5,1.62,5.3,2.19,8.41,1.69
						c2.31-0.37,4.31-1.21,6-2.53c1.69-1.32,2.94-3.08,3.75-5.3l-11.18,1.79l-0.3-5.91l18.13-2.89c0.79,5.42-0.23,9.99-3.07,13.71
						c-2.83,3.71-6.92,6-12.27,6.85c-5.81,0.93-10.74-0.17-14.78-3.3c-3.25-2.51-5.27-5.79-6.06-9.84
						c-0.96-4.94,0.17-9.52,3.39-13.75c3.22-4.22,7.54-6.77,12.97-7.64c2.01-0.32,4.03-0.37,6.05-0.14c2.02,0.23,3.9,0.7,5.63,1.41
						C301.01,314.11,302.74,315.16,304.47,316.55z"/>
					<path d="M315.44,308.53l6.75-1.08l0.53,12.58l12.29-1.96l-0.54-12.57l6.77-1.08l1.4,33.33l-6.73,1.07l-0.66-15.13l-12.3,1.96
						l0.63,15.14l-6.7,1.07L315.44,308.53z"/>
					<path d="M346,303.65l21.88-3.49l0.35,5.92l-7.47,1.19l1.19,27.39l-6.68,1.07l-1.19-27.39l-7.78,1.24L346,303.65z"/>
					<path d="M391.93,300.99l-4.13,4.72c-2.47-2.04-4.58-2.92-6.32-2.64c-0.86,0.14-1.53,0.48-2.01,1.04s-0.65,1.16-0.53,1.81
						c0.12,0.6,0.51,1.23,1.17,1.89c0.66,0.65,2.56,2.03,5.68,4.13c1.66,1.12,2.76,1.92,3.31,2.41c1.31,1.13,2.3,2.22,2.99,3.28
						c0.68,1.05,1.14,2.16,1.36,3.33c0.51,2.61-0.09,4.96-1.79,7.06c-1.7,2.1-4.15,3.4-7.35,3.91c-4.87,0.78-9.25-0.69-13.14-4.4
						l4.43-4.61c2.64,2.54,5.17,3.62,7.59,3.24c1.15-0.18,2.06-0.68,2.71-1.48c0.66-0.8,0.89-1.69,0.7-2.65
						c-0.15-0.75-0.54-1.48-1.17-2.19c-0.63-0.71-2.29-1.96-4.97-3.77c-2.83-1.9-4.74-3.38-5.71-4.43c-1.31-1.42-2.12-2.88-2.42-4.4
						c-0.39-2.01-0.02-3.92,1.12-5.74c1.43-2.28,3.69-3.67,6.78-4.16C384.48,296.66,388.38,297.88,391.93,300.99z"/>
				</g>
				<g>
					<path d="M218.95,323.94l5.87-0.94l17.23,20.06l-0.98-22.65l6.57-1.05l1.47,33.32l-5.75,0.92l-17.45-20.27l0.99,22.9l-6.46,1.03
						L218.95,323.94z"/>
					<path d="M256.85,317.89l6.58-1.05l1.32,33.34l-6.46,1.03L256.85,317.89z"/>
					<path d="M304.47,316.55l-4.96,4.2c-1.95-1.42-3.75-2.34-5.39-2.76c-1.64-0.41-3.42-0.47-5.33-0.16
						c-4.14,0.66-7.22,2.71-9.23,6.15c-1.59,2.73-2.11,5.57-1.53,8.5c0.56,2.89,2.1,5.15,4.6,6.77c2.5,1.62,5.3,2.19,8.41,1.69
						c2.31-0.37,4.31-1.21,6-2.53c1.69-1.32,2.94-3.08,3.75-5.3l-11.18,1.79l-0.3-5.91l18.13-2.89c0.79,5.42-0.23,9.99-3.07,13.71
						c-2.83,3.71-6.92,6-12.27,6.85c-5.81,0.93-10.74-0.17-14.78-3.3c-3.25-2.51-5.27-5.79-6.06-9.84
						c-0.96-4.94,0.17-9.52,3.39-13.75c3.22-4.22,7.54-6.77,12.97-7.64c2.01-0.32,4.03-0.37,6.05-0.14c2.02,0.23,3.9,0.7,5.63,1.41
						C301.01,314.11,302.74,315.16,304.47,316.55z"/>
					<path d="M315.44,308.53l6.75-1.08l0.53,12.58l12.29-1.96l-0.54-12.57l6.77-1.08l1.4,33.33l-6.73,1.07l-0.66-15.13l-12.3,1.96
						l0.63,15.14l-6.7,1.07L315.44,308.53z"/>
					<path d="M346,303.65l21.88-3.49l0.35,5.92l-7.47,1.19l1.19,27.39l-6.68,1.07l-1.19-27.39l-7.78,1.24L346,303.65z"/>
					<path d="M391.93,300.99l-4.13,4.72c-2.47-2.04-4.58-2.92-6.32-2.64c-0.86,0.14-1.53,0.48-2.01,1.04s-0.65,1.16-0.53,1.81
						c0.12,0.6,0.51,1.23,1.17,1.89c0.66,0.65,2.56,2.03,5.68,4.13c1.66,1.12,2.76,1.92,3.31,2.41c1.31,1.13,2.3,2.22,2.99,3.28
						c0.68,1.05,1.14,2.16,1.36,3.33c0.51,2.61-0.09,4.96-1.79,7.06c-1.7,2.1-4.15,3.4-7.35,3.91c-4.87,0.78-9.25-0.69-13.14-4.4
						l4.43-4.61c2.64,2.54,5.17,3.62,7.59,3.24c1.15-0.18,2.06-0.68,2.71-1.48c0.66-0.8,0.89-1.69,0.7-2.65
						c-0.15-0.75-0.54-1.48-1.17-2.19c-0.63-0.71-2.29-1.96-4.97-3.77c-2.83-1.9-4.74-3.38-5.71-4.43c-1.31-1.42-2.12-2.88-2.42-4.4
						c-0.39-2.01-0.02-3.92,1.12-5.74c1.43-2.28,3.69-3.67,6.78-4.16C384.48,296.66,388.38,297.88,391.93,300.99z"/>
				</g>
				<g>
					<path d="M218.95,323.94l5.87-0.94l17.23,20.06l-0.98-22.65l6.57-1.05l1.47,33.32l-5.75,0.92l-17.45-20.27l0.99,22.9l-6.46,1.03
						L218.95,323.94z"/>
					<path d="M256.85,317.89l6.58-1.05l1.32,33.34l-6.46,1.03L256.85,317.89z"/>
					<path d="M304.47,316.55l-4.96,4.2c-1.95-1.42-3.75-2.34-5.39-2.76c-1.64-0.41-3.42-0.47-5.33-0.16
						c-4.14,0.66-7.22,2.71-9.23,6.15c-1.59,2.73-2.11,5.57-1.53,8.5c0.56,2.89,2.1,5.15,4.6,6.77c2.5,1.62,5.3,2.19,8.41,1.69
						c2.31-0.37,4.31-1.21,6-2.53c1.69-1.32,2.94-3.08,3.75-5.3l-11.18,1.79l-0.3-5.91l18.13-2.89c0.79,5.42-0.23,9.99-3.07,13.71
						c-2.83,3.71-6.92,6-12.27,6.85c-5.81,0.93-10.74-0.17-14.78-3.3c-3.25-2.51-5.27-5.79-6.06-9.84
						c-0.96-4.94,0.17-9.52,3.39-13.75c3.22-4.22,7.54-6.77,12.97-7.64c2.01-0.32,4.03-0.37,6.05-0.14c2.02,0.23,3.9,0.7,5.63,1.41
						C301.01,314.11,302.74,315.16,304.47,316.55z"/>
					<path d="M315.44,308.53l6.75-1.08l0.53,12.58l12.29-1.96l-0.54-12.57l6.77-1.08l1.4,33.33l-6.73,1.07l-0.66-15.13l-12.3,1.96
						l0.63,15.14l-6.7,1.07L315.44,308.53z"/>
					<path d="M346,303.65l21.88-3.49l0.35,5.92l-7.47,1.19l1.19,27.39l-6.68,1.07l-1.19-27.39l-7.78,1.24L346,303.65z"/>
					<path d="M391.93,300.99l-4.13,4.72c-2.47-2.04-4.58-2.92-6.32-2.64c-0.86,0.14-1.53,0.48-2.01,1.04s-0.65,1.16-0.53,1.81
						c0.12,0.6,0.51,1.23,1.17,1.89c0.66,0.65,2.56,2.03,5.68,4.13c1.66,1.12,2.76,1.92,3.31,2.41c1.31,1.13,2.3,2.22,2.99,3.28
						c0.68,1.05,1.14,2.16,1.36,3.33c0.51,2.61-0.09,4.96-1.79,7.06c-1.7,2.1-4.15,3.4-7.35,3.91c-4.87,0.78-9.25-0.69-13.14-4.4
						l4.43-4.61c2.64,2.54,5.17,3.62,7.59,3.24c1.15-0.18,2.06-0.68,2.71-1.48c0.66-0.8,0.89-1.69,0.7-2.65
						c-0.15-0.75-0.54-1.48-1.17-2.19c-0.63-0.71-2.29-1.96-4.97-3.77c-2.83-1.9-4.74-3.38-5.71-4.43c-1.31-1.42-2.12-2.88-2.42-4.4
						c-0.39-2.01-0.02-3.92,1.12-5.74c1.43-2.28,3.69-3.67,6.78-4.16C384.48,296.66,388.38,297.88,391.93,300.99z"/>
				</g>
			</g>
		</g>
	</g>
	<g>
		<g>
			<g>
				<g>
					<path class="st2" d="M221.04,323.01l5.87-0.94l17.23,20.06l-0.98-22.65l6.56-1.05l1.47,33.32l-5.75,0.92L228,332.39l0.99,22.9
						l-6.46,1.03L221.04,323.01z"/>
					<path class="st2" d="M258.93,316.96l6.58-1.05l1.32,33.34l-6.46,1.03L258.93,316.96z"/>
					<path class="st2" d="M306.55,315.62l-4.96,4.2c-1.95-1.42-3.75-2.34-5.39-2.76c-1.64-0.42-3.42-0.47-5.33-0.16
						c-4.14,0.66-7.22,2.71-9.23,6.15c-1.59,2.73-2.11,5.57-1.53,8.5c0.56,2.89,2.1,5.15,4.6,6.77c2.5,1.62,5.3,2.19,8.41,1.69
						c2.31-0.37,4.31-1.21,6-2.53c1.69-1.32,2.94-3.08,3.75-5.3l-11.18,1.79l-0.3-5.91l18.12-2.89c0.79,5.42-0.23,9.99-3.07,13.71
						c-2.83,3.71-6.92,6-12.27,6.85c-5.81,0.93-10.74-0.17-14.78-3.3c-3.25-2.51-5.27-5.79-6.06-9.84
						c-0.96-4.94,0.17-9.52,3.39-13.75c3.22-4.23,7.54-6.77,12.97-7.64c2.01-0.32,4.03-0.37,6.05-0.14c2.02,0.23,3.9,0.7,5.63,1.41
						C303.1,313.18,304.83,314.23,306.55,315.62z"/>
					<path class="st2" d="M317.53,307.6l6.75-1.08l0.53,12.58l12.29-1.96l-0.54-12.57l6.77-1.08l1.4,33.33l-6.73,1.07l-0.66-15.13
						l-12.3,1.96l0.63,15.14l-6.7,1.07L317.53,307.6z"/>
					<path class="st2" d="M348.09,302.72l21.88-3.49l0.35,5.92l-7.47,1.19l1.19,27.39l-6.68,1.07l-1.19-27.39l-7.78,1.24
						L348.09,302.72z"/>
					<path class="st2" d="M394.02,300.06l-4.13,4.72c-2.47-2.04-4.58-2.92-6.32-2.64c-0.86,0.14-1.53,0.48-2.01,1.04
						c-0.48,0.56-0.65,1.16-0.53,1.81c0.12,0.61,0.51,1.24,1.17,1.89c0.66,0.65,2.56,2.03,5.68,4.13c1.66,1.12,2.76,1.92,3.31,2.41
						c1.31,1.13,2.3,2.22,2.99,3.28c0.68,1.05,1.14,2.16,1.36,3.33c0.51,2.61-0.09,4.96-1.79,7.06c-1.7,2.1-4.15,3.4-7.35,3.91
						c-4.87,0.78-9.25-0.69-13.14-4.4l4.43-4.61c2.64,2.54,5.17,3.62,7.59,3.24c1.15-0.18,2.06-0.68,2.71-1.48
						c0.66-0.8,0.89-1.69,0.7-2.64c-0.15-0.75-0.54-1.48-1.17-2.19c-0.63-0.7-2.29-1.96-4.97-3.77c-2.83-1.9-4.74-3.38-5.71-4.43
						c-1.31-1.42-2.12-2.89-2.42-4.4c-0.39-2.01-0.02-3.92,1.12-5.74c1.43-2.28,3.69-3.67,6.78-4.16
						C386.57,295.73,390.46,296.95,394.02,300.06z"/>
				</g>
			</g>
		</g>
		<g>
			<g>
				<g>
					
						<linearGradient id="SVGID_00000134219668451727432890000008451085308482964122_" gradientUnits="userSpaceOnUse" x1="221.1082" y1="330.4803" x2="395.7802" y2="330.4803" gradientTransform="matrix(1 5.443906e-03 -5.443906e-03 1 1.7207 -5.8547)">
						<stop  offset="4.469418e-03" style="stop-color:#F89938"/>
						<stop  offset="0.1585" style="stop-color:#F59537"/>
						<stop  offset="0.3344" style="stop-color:#EF8A34"/>
						<stop  offset="0.521" style="stop-color:#E67830"/>
						<stop  offset="0.715" style="stop-color:#DB5E2C"/>
						<stop  offset="0.9129" style="stop-color:#D03928"/>
						<stop  offset="1" style="stop-color:#CA2026"/>
					</linearGradient>
					<path style="fill:url(#SVGID_00000134219668451727432890000008451085308482964122_);" d="M221.04,323.01l5.87-0.94l17.23,20.06
						l-0.98-22.65l6.56-1.05l1.47,33.32l-5.75,0.92L228,332.39l0.99,22.9l-6.46,1.03L221.04,323.01z"/>
					
						<linearGradient id="SVGID_00000040570828186470789100000011916399575730358414_" gradientUnits="userSpaceOnUse" x1="221.1082" y1="330.4803" x2="395.7802" y2="330.4803" gradientTransform="matrix(1 5.443906e-03 -5.443906e-03 1 1.7207 -5.8547)">
						<stop  offset="4.469418e-03" style="stop-color:#F89938"/>
						<stop  offset="0.1585" style="stop-color:#F59537"/>
						<stop  offset="0.3344" style="stop-color:#EF8A34"/>
						<stop  offset="0.521" style="stop-color:#E67830"/>
						<stop  offset="0.715" style="stop-color:#DB5E2C"/>
						<stop  offset="0.9129" style="stop-color:#D03928"/>
						<stop  offset="1" style="stop-color:#CA2026"/>
					</linearGradient>
					<path style="fill:url(#SVGID_00000040570828186470789100000011916399575730358414_);" d="M258.93,316.96l6.58-1.05l1.32,33.34
						l-6.46,1.03L258.93,316.96z"/>
					
						<linearGradient id="SVGID_00000135662732520039972550000016668670977061312901_" gradientUnits="userSpaceOnUse" x1="221.1082" y1="330.4803" x2="395.7802" y2="330.4803" gradientTransform="matrix(1 5.443906e-03 -5.443906e-03 1 1.7207 -5.8547)">
						<stop  offset="4.469418e-03" style="stop-color:#F89938"/>
						<stop  offset="0.1585" style="stop-color:#F59537"/>
						<stop  offset="0.3344" style="stop-color:#EF8A34"/>
						<stop  offset="0.521" style="stop-color:#E67830"/>
						<stop  offset="0.715" style="stop-color:#DB5E2C"/>
						<stop  offset="0.9129" style="stop-color:#D03928"/>
						<stop  offset="1" style="stop-color:#CA2026"/>
					</linearGradient>
					<path style="fill:url(#SVGID_00000135662732520039972550000016668670977061312901_);" d="M306.55,315.62l-4.96,4.2
						c-1.95-1.42-3.75-2.34-5.39-2.76c-1.64-0.42-3.42-0.47-5.33-0.16c-4.14,0.66-7.22,2.71-9.23,6.15
						c-1.59,2.73-2.11,5.57-1.53,8.5c0.56,2.89,2.1,5.15,4.6,6.77c2.5,1.62,5.3,2.19,8.41,1.69c2.31-0.37,4.31-1.21,6-2.53
						c1.69-1.32,2.94-3.08,3.75-5.3l-11.18,1.79l-0.3-5.91l18.12-2.89c0.79,5.42-0.23,9.99-3.07,13.71c-2.83,3.71-6.92,6-12.27,6.85
						c-5.81,0.93-10.74-0.17-14.78-3.3c-3.25-2.51-5.27-5.79-6.06-9.84c-0.96-4.94,0.17-9.52,3.39-13.75
						c3.22-4.23,7.54-6.77,12.97-7.64c2.01-0.32,4.03-0.37,6.05-0.14c2.02,0.23,3.9,0.7,5.63,1.41
						C303.1,313.18,304.83,314.23,306.55,315.62z"/>
					
						<linearGradient id="SVGID_00000070799951452328169270000011417165128353714870_" gradientUnits="userSpaceOnUse" x1="221.1082" y1="330.4803" x2="395.7802" y2="330.4803" gradientTransform="matrix(1 5.443906e-03 -5.443906e-03 1 1.7207 -5.8547)">
						<stop  offset="4.469418e-03" style="stop-color:#F89938"/>
						<stop  offset="0.1585" style="stop-color:#F59537"/>
						<stop  offset="0.3344" style="stop-color:#EF8A34"/>
						<stop  offset="0.521" style="stop-color:#E67830"/>
						<stop  offset="0.715" style="stop-color:#DB5E2C"/>
						<stop  offset="0.9129" style="stop-color:#D03928"/>
						<stop  offset="1" style="stop-color:#CA2026"/>
					</linearGradient>
					<path style="fill:url(#SVGID_00000070799951452328169270000011417165128353714870_);" d="M317.53,307.6l6.75-1.08l0.53,12.58
						l12.29-1.96l-0.54-12.57l6.77-1.08l1.4,33.33l-6.73,1.07l-0.66-15.13l-12.3,1.96l0.63,15.14l-6.7,1.07L317.53,307.6z"/>
					
						<linearGradient id="SVGID_00000121988250925141626160000010706877691552615825_" gradientUnits="userSpaceOnUse" x1="221.1082" y1="330.4803" x2="395.7802" y2="330.4803" gradientTransform="matrix(1 5.443906e-03 -5.443906e-03 1 1.7207 -5.8547)">
						<stop  offset="4.469418e-03" style="stop-color:#F89938"/>
						<stop  offset="0.1585" style="stop-color:#F59537"/>
						<stop  offset="0.3344" style="stop-color:#EF8A34"/>
						<stop  offset="0.521" style="stop-color:#E67830"/>
						<stop  offset="0.715" style="stop-color:#DB5E2C"/>
						<stop  offset="0.9129" style="stop-color:#D03928"/>
						<stop  offset="1" style="stop-color:#CA2026"/>
					</linearGradient>
					<path style="fill:url(#SVGID_00000121988250925141626160000010706877691552615825_);" d="M348.09,302.72l21.88-3.49l0.35,5.92
						l-7.47,1.19l1.19,27.39l-6.68,1.07l-1.19-27.39l-7.78,1.24L348.09,302.72z"/>
					
						<linearGradient id="SVGID_00000125588818802729368820000016326596034704386978_" gradientUnits="userSpaceOnUse" x1="221.1082" y1="330.4803" x2="395.7802" y2="330.4803" gradientTransform="matrix(1 5.443906e-03 -5.443906e-03 1 1.7207 -5.8547)">
						<stop  offset="4.469418e-03" style="stop-color:#F89938"/>
						<stop  offset="0.1585" style="stop-color:#F59537"/>
						<stop  offset="0.3344" style="stop-color:#EF8A34"/>
						<stop  offset="0.521" style="stop-color:#E67830"/>
						<stop  offset="0.715" style="stop-color:#DB5E2C"/>
						<stop  offset="0.9129" style="stop-color:#D03928"/>
						<stop  offset="1" style="stop-color:#CA2026"/>
					</linearGradient>
					<path style="fill:url(#SVGID_00000125588818802729368820000016326596034704386978_);" d="M394.02,300.06l-4.13,4.72
						c-2.47-2.04-4.58-2.92-6.32-2.64c-0.86,0.14-1.53,0.48-2.01,1.04c-0.48,0.56-0.65,1.16-0.53,1.81
						c0.12,0.61,0.51,1.24,1.17,1.89c0.66,0.65,2.56,2.03,5.68,4.13c1.66,1.12,2.76,1.92,3.31,2.41c1.31,1.13,2.3,2.22,2.99,3.28
						c0.68,1.05,1.14,2.16,1.36,3.33c0.51,2.61-0.09,4.96-1.79,7.06c-1.7,2.1-4.15,3.4-7.35,3.91c-4.87,0.78-9.25-0.69-13.14-4.4
						l4.43-4.61c2.64,2.54,5.17,3.62,7.59,3.24c1.15-0.18,2.06-0.68,2.71-1.48c0.66-0.8,0.89-1.69,0.7-2.64
						c-0.15-0.75-0.54-1.48-1.17-2.19c-0.63-0.7-2.29-1.96-4.97-3.77c-2.83-1.9-4.74-3.38-5.71-4.43c-1.31-1.42-2.12-2.89-2.42-4.4
						c-0.39-2.01-0.02-3.92,1.12-5.74c1.43-2.28,3.69-3.67,6.78-4.16C386.57,295.73,390.46,296.95,394.02,300.06z"/>
				</g>
				<g>
					
						<linearGradient id="SVGID_00000170254896573474390860000016448792970013373871_" gradientUnits="userSpaceOnUse" x1="221.1082" y1="330.4803" x2="395.7802" y2="330.4803" gradientTransform="matrix(1 5.443906e-03 -5.443906e-03 1 1.7207 -5.8547)">
						<stop  offset="4.469418e-03" style="stop-color:#F89938"/>
						<stop  offset="0.1585" style="stop-color:#F59537"/>
						<stop  offset="0.3344" style="stop-color:#EF8A34"/>
						<stop  offset="0.521" style="stop-color:#E67830"/>
						<stop  offset="0.715" style="stop-color:#DB5E2C"/>
						<stop  offset="0.9129" style="stop-color:#D03928"/>
						<stop  offset="1" style="stop-color:#CA2026"/>
					</linearGradient>
					<path style="fill:url(#SVGID_00000170254896573474390860000016448792970013373871_);" d="M221.04,323.01l5.87-0.94l17.23,20.06
						l-0.98-22.65l6.56-1.05l1.47,33.32l-5.75,0.92L228,332.39l0.99,22.9l-6.46,1.03L221.04,323.01z"/>
					
						<linearGradient id="SVGID_00000134962290111851028480000006052360098965929379_" gradientUnits="userSpaceOnUse" x1="221.1082" y1="330.4803" x2="395.7802" y2="330.4803" gradientTransform="matrix(1 5.443906e-03 -5.443906e-03 1 1.7207 -5.8547)">
						<stop  offset="4.469418e-03" style="stop-color:#F89938"/>
						<stop  offset="0.1585" style="stop-color:#F59537"/>
						<stop  offset="0.3344" style="stop-color:#EF8A34"/>
						<stop  offset="0.521" style="stop-color:#E67830"/>
						<stop  offset="0.715" style="stop-color:#DB5E2C"/>
						<stop  offset="0.9129" style="stop-color:#D03928"/>
						<stop  offset="1" style="stop-color:#CA2026"/>
					</linearGradient>
					<path style="fill:url(#SVGID_00000134962290111851028480000006052360098965929379_);" d="M258.93,316.96l6.58-1.05l1.32,33.34
						l-6.46,1.03L258.93,316.96z"/>
					
						<linearGradient id="SVGID_00000001650562440505217300000003091531143049601435_" gradientUnits="userSpaceOnUse" x1="221.1082" y1="330.4803" x2="395.7802" y2="330.4803" gradientTransform="matrix(1 5.443906e-03 -5.443906e-03 1 1.7207 -5.8547)">
						<stop  offset="4.469418e-03" style="stop-color:#F89938"/>
						<stop  offset="0.1585" style="stop-color:#F59537"/>
						<stop  offset="0.3344" style="stop-color:#EF8A34"/>
						<stop  offset="0.521" style="stop-color:#E67830"/>
						<stop  offset="0.715" style="stop-color:#DB5E2C"/>
						<stop  offset="0.9129" style="stop-color:#D03928"/>
						<stop  offset="1" style="stop-color:#CA2026"/>
					</linearGradient>
					<path style="fill:url(#SVGID_00000001650562440505217300000003091531143049601435_);" d="M306.55,315.62l-4.96,4.2
						c-1.95-1.42-3.75-2.34-5.39-2.76c-1.64-0.42-3.42-0.47-5.33-0.16c-4.14,0.66-7.22,2.71-9.23,6.15
						c-1.59,2.73-2.11,5.57-1.53,8.5c0.56,2.89,2.1,5.15,4.6,6.77c2.5,1.62,5.3,2.19,8.41,1.69c2.31-0.37,4.31-1.21,6-2.53
						c1.69-1.32,2.94-3.08,3.75-5.3l-11.18,1.79l-0.3-5.91l18.12-2.89c0.79,5.42-0.23,9.99-3.07,13.71c-2.83,3.71-6.92,6-12.27,6.85
						c-5.81,0.93-10.74-0.17-14.78-3.3c-3.25-2.51-5.27-5.79-6.06-9.84c-0.96-4.94,0.17-9.52,3.39-13.75
						c3.22-4.23,7.54-6.77,12.97-7.64c2.01-0.32,4.03-0.37,6.05-0.14c2.02,0.23,3.9,0.7,5.63,1.41
						C303.1,313.18,304.83,314.23,306.55,315.62z"/>
					
						<linearGradient id="SVGID_00000160884671964449272260000006925467451158348697_" gradientUnits="userSpaceOnUse" x1="221.1082" y1="330.4803" x2="395.7802" y2="330.4803" gradientTransform="matrix(1 5.443906e-03 -5.443906e-03 1 1.7207 -5.8547)">
						<stop  offset="4.469418e-03" style="stop-color:#F89938"/>
						<stop  offset="0.1585" style="stop-color:#F59537"/>
						<stop  offset="0.3344" style="stop-color:#EF8A34"/>
						<stop  offset="0.521" style="stop-color:#E67830"/>
						<stop  offset="0.715" style="stop-color:#DB5E2C"/>
						<stop  offset="0.9129" style="stop-color:#D03928"/>
						<stop  offset="1" style="stop-color:#CA2026"/>
					</linearGradient>
					<path style="fill:url(#SVGID_00000160884671964449272260000006925467451158348697_);" d="M317.53,307.6l6.75-1.08l0.53,12.58
						l12.29-1.96l-0.54-12.57l6.77-1.08l1.4,33.33l-6.73,1.07l-0.66-15.13l-12.3,1.96l0.63,15.14l-6.7,1.07L317.53,307.6z"/>
					
						<linearGradient id="SVGID_00000052085925915474909230000014326400820238558086_" gradientUnits="userSpaceOnUse" x1="221.1082" y1="330.4803" x2="395.7802" y2="330.4803" gradientTransform="matrix(1 5.443906e-03 -5.443906e-03 1 1.7207 -5.8547)">
						<stop  offset="4.469418e-03" style="stop-color:#F89938"/>
						<stop  offset="0.1585" style="stop-color:#F59537"/>
						<stop  offset="0.3344" style="stop-color:#EF8A34"/>
						<stop  offset="0.521" style="stop-color:#E67830"/>
						<stop  offset="0.715" style="stop-color:#DB5E2C"/>
						<stop  offset="0.9129" style="stop-color:#D03928"/>
						<stop  offset="1" style="stop-color:#CA2026"/>
					</linearGradient>
					<path style="fill:url(#SVGID_00000052085925915474909230000014326400820238558086_);" d="M348.09,302.72l21.88-3.49l0.35,5.92
						l-7.47,1.19l1.19,27.39l-6.68,1.07l-1.19-27.39l-7.78,1.24L348.09,302.72z"/>
					
						<linearGradient id="SVGID_00000132087339990338129690000002465978391797765044_" gradientUnits="userSpaceOnUse" x1="221.1082" y1="330.4803" x2="395.7802" y2="330.4803" gradientTransform="matrix(1 5.443906e-03 -5.443906e-03 1 1.7207 -5.8547)">
						<stop  offset="4.469418e-03" style="stop-color:#F89938"/>
						<stop  offset="0.1585" style="stop-color:#F59537"/>
						<stop  offset="0.3344" style="stop-color:#EF8A34"/>
						<stop  offset="0.521" style="stop-color:#E67830"/>
						<stop  offset="0.715" style="stop-color:#DB5E2C"/>
						<stop  offset="0.9129" style="stop-color:#D03928"/>
						<stop  offset="1" style="stop-color:#CA2026"/>
					</linearGradient>
					<path style="fill:url(#SVGID_00000132087339990338129690000002465978391797765044_);" d="M394.02,300.06l-4.13,4.72
						c-2.47-2.04-4.58-2.92-6.32-2.64c-0.86,0.14-1.53,0.48-2.01,1.04c-0.48,0.56-0.65,1.16-0.53,1.81
						c0.12,0.61,0.51,1.24,1.17,1.89c0.66,0.65,2.56,2.03,5.68,4.13c1.66,1.12,2.76,1.92,3.31,2.41c1.31,1.13,2.3,2.22,2.99,3.28
						c0.68,1.05,1.14,2.16,1.36,3.33c0.51,2.61-0.09,4.96-1.79,7.06c-1.7,2.1-4.15,3.4-7.35,3.91c-4.87,0.78-9.25-0.69-13.14-4.4
						l4.43-4.61c2.64,2.54,5.17,3.62,7.59,3.24c1.15-0.18,2.06-0.68,2.71-1.48c0.66-0.8,0.89-1.69,0.7-2.64
						c-0.15-0.75-0.54-1.48-1.17-2.19c-0.63-0.7-2.29-1.96-4.97-3.77c-2.83-1.9-4.74-3.38-5.71-4.43c-1.31-1.42-2.12-2.89-2.42-4.4
						c-0.39-2.01-0.02-3.92,1.12-5.74c1.43-2.28,3.69-3.67,6.78-4.16C386.57,295.73,390.46,296.95,394.02,300.06z"/>
				</g>
				<g>
					
						<linearGradient id="SVGID_00000181079774572465337200000003427621220545993136_" gradientUnits="userSpaceOnUse" x1="221.1082" y1="330.4803" x2="395.7802" y2="330.4803" gradientTransform="matrix(1 5.443906e-03 -5.443906e-03 1 1.7207 -5.8547)">
						<stop  offset="4.469418e-03" style="stop-color:#F89938"/>
						<stop  offset="0.1585" style="stop-color:#F59537"/>
						<stop  offset="0.3344" style="stop-color:#EF8A34"/>
						<stop  offset="0.521" style="stop-color:#E67830"/>
						<stop  offset="0.715" style="stop-color:#DB5E2C"/>
						<stop  offset="0.9129" style="stop-color:#D03928"/>
						<stop  offset="1" style="stop-color:#CA2026"/>
					</linearGradient>
					<path style="fill:url(#SVGID_00000181079774572465337200000003427621220545993136_);" d="M221.04,323.01l5.87-0.94l17.23,20.06
						l-0.98-22.65l6.56-1.05l1.47,33.32l-5.75,0.92L228,332.39l0.99,22.9l-6.46,1.03L221.04,323.01z"/>
					
						<linearGradient id="SVGID_00000105422684068172675150000006245116941301872804_" gradientUnits="userSpaceOnUse" x1="221.1082" y1="330.4803" x2="395.7802" y2="330.4803" gradientTransform="matrix(1 5.443906e-03 -5.443906e-03 1 1.7207 -5.8547)">
						<stop  offset="4.469418e-03" style="stop-color:#F89938"/>
						<stop  offset="0.1585" style="stop-color:#F59537"/>
						<stop  offset="0.3344" style="stop-color:#EF8A34"/>
						<stop  offset="0.521" style="stop-color:#E67830"/>
						<stop  offset="0.715" style="stop-color:#DB5E2C"/>
						<stop  offset="0.9129" style="stop-color:#D03928"/>
						<stop  offset="1" style="stop-color:#CA2026"/>
					</linearGradient>
					<path style="fill:url(#SVGID_00000105422684068172675150000006245116941301872804_);" d="M258.93,316.96l6.58-1.05l1.32,33.34
						l-6.46,1.03L258.93,316.96z"/>
					
						<linearGradient id="SVGID_00000039125427964615365250000002305885994621518468_" gradientUnits="userSpaceOnUse" x1="221.1082" y1="330.4803" x2="395.7802" y2="330.4803" gradientTransform="matrix(1 5.443906e-03 -5.443906e-03 1 1.7207 -5.8547)">
						<stop  offset="4.469418e-03" style="stop-color:#F89938"/>
						<stop  offset="0.1585" style="stop-color:#F59537"/>
						<stop  offset="0.3344" style="stop-color:#EF8A34"/>
						<stop  offset="0.521" style="stop-color:#E67830"/>
						<stop  offset="0.715" style="stop-color:#DB5E2C"/>
						<stop  offset="0.9129" style="stop-color:#D03928"/>
						<stop  offset="1" style="stop-color:#CA2026"/>
					</linearGradient>
					<path style="fill:url(#SVGID_00000039125427964615365250000002305885994621518468_);" d="M306.55,315.62l-4.96,4.2
						c-1.95-1.42-3.75-2.34-5.39-2.76c-1.64-0.42-3.42-0.47-5.33-0.16c-4.14,0.66-7.22,2.71-9.23,6.15
						c-1.59,2.73-2.11,5.57-1.53,8.5c0.56,2.89,2.1,5.15,4.6,6.77c2.5,1.62,5.3,2.19,8.41,1.69c2.31-0.37,4.31-1.21,6-2.53
						c1.69-1.32,2.94-3.08,3.75-5.3l-11.18,1.79l-0.3-5.91l18.12-2.89c0.79,5.42-0.23,9.99-3.07,13.71c-2.83,3.71-6.92,6-12.27,6.85
						c-5.81,0.93-10.74-0.17-14.78-3.3c-3.25-2.51-5.27-5.79-6.06-9.84c-0.96-4.94,0.17-9.52,3.39-13.75
						c3.22-4.23,7.54-6.77,12.97-7.64c2.01-0.32,4.03-0.37,6.05-0.14c2.02,0.23,3.9,0.7,5.63,1.41
						C303.1,313.18,304.83,314.23,306.55,315.62z"/>
					
						<linearGradient id="SVGID_00000128470680274780279570000000059920179023422081_" gradientUnits="userSpaceOnUse" x1="221.1082" y1="330.4803" x2="395.7802" y2="330.4803" gradientTransform="matrix(1 5.443906e-03 -5.443906e-03 1 1.7207 -5.8547)">
						<stop  offset="4.469418e-03" style="stop-color:#F89938"/>
						<stop  offset="0.1585" style="stop-color:#F59537"/>
						<stop  offset="0.3344" style="stop-color:#EF8A34"/>
						<stop  offset="0.521" style="stop-color:#E67830"/>
						<stop  offset="0.715" style="stop-color:#DB5E2C"/>
						<stop  offset="0.9129" style="stop-color:#D03928"/>
						<stop  offset="1" style="stop-color:#CA2026"/>
					</linearGradient>
					<path style="fill:url(#SVGID_00000128470680274780279570000000059920179023422081_);" d="M317.53,307.6l6.75-1.08l0.53,12.58
						l12.29-1.96l-0.54-12.57l6.77-1.08l1.4,33.33l-6.73,1.07l-0.66-15.13l-12.3,1.96l0.63,15.14l-6.7,1.07L317.53,307.6z"/>
					
						<linearGradient id="SVGID_00000103961900770782419780000018081472827508307866_" gradientUnits="userSpaceOnUse" x1="221.1082" y1="330.4803" x2="395.7802" y2="330.4803" gradientTransform="matrix(1 5.443906e-03 -5.443906e-03 1 1.7207 -5.8547)">
						<stop  offset="4.469418e-03" style="stop-color:#F89938"/>
						<stop  offset="0.1585" style="stop-color:#F59537"/>
						<stop  offset="0.3344" style="stop-color:#EF8A34"/>
						<stop  offset="0.521" style="stop-color:#E67830"/>
						<stop  offset="0.715" style="stop-color:#DB5E2C"/>
						<stop  offset="0.9129" style="stop-color:#D03928"/>
						<stop  offset="1" style="stop-color:#CA2026"/>
					</linearGradient>
					<path style="fill:url(#SVGID_00000103961900770782419780000018081472827508307866_);" d="M348.09,302.72l21.88-3.49l0.35,5.92
						l-7.47,1.19l1.19,27.39l-6.68,1.07l-1.19-27.39l-7.78,1.24L348.09,302.72z"/>
					
						<linearGradient id="SVGID_00000143607681991636529670000011136437055331315595_" gradientUnits="userSpaceOnUse" x1="221.1082" y1="330.4803" x2="395.7802" y2="330.4803" gradientTransform="matrix(1 5.443906e-03 -5.443906e-03 1 1.7207 -5.8547)">
						<stop  offset="4.469418e-03" style="stop-color:#F89938"/>
						<stop  offset="0.1585" style="stop-color:#F59537"/>
						<stop  offset="0.3344" style="stop-color:#EF8A34"/>
						<stop  offset="0.521" style="stop-color:#E67830"/>
						<stop  offset="0.715" style="stop-color:#DB5E2C"/>
						<stop  offset="0.9129" style="stop-color:#D03928"/>
						<stop  offset="1" style="stop-color:#CA2026"/>
					</linearGradient>
					<path style="fill:url(#SVGID_00000143607681991636529670000011136437055331315595_);" d="M394.02,300.06l-4.13,4.72
						c-2.47-2.04-4.58-2.92-6.32-2.64c-0.86,0.14-1.53,0.48-2.01,1.04c-0.48,0.56-0.65,1.16-0.53,1.81
						c0.12,0.61,0.51,1.24,1.17,1.89c0.66,0.65,2.56,2.03,5.68,4.13c1.66,1.12,2.76,1.92,3.31,2.41c1.31,1.13,2.3,2.22,2.99,3.28
						c0.68,1.05,1.14,2.16,1.36,3.33c0.51,2.61-0.09,4.96-1.79,7.06c-1.7,2.1-4.15,3.4-7.35,3.91c-4.87,0.78-9.25-0.69-13.14-4.4
						l4.43-4.61c2.64,2.54,5.17,3.62,7.59,3.24c1.15-0.18,2.06-0.68,2.71-1.48c0.66-0.8,0.89-1.69,0.7-2.64
						c-0.15-0.75-0.54-1.48-1.17-2.19c-0.63-0.7-2.29-1.96-4.97-3.77c-2.83-1.9-4.74-3.38-5.71-4.43c-1.31-1.42-2.12-2.89-2.42-4.4
						c-0.39-2.01-0.02-3.92,1.12-5.74c1.43-2.28,3.69-3.67,6.78-4.16C386.57,295.73,390.46,296.95,394.02,300.06z"/>
				</g>
			</g>
		</g>
	</g>
</g>
<linearGradient id="SVGID_00000112634422981596418690000002011375918745400511_" gradientUnits="userSpaceOnUse" x1="226.8584" y1="204.0528" x2="229.6049" y2="72.9216">
	<stop  offset="4.469418e-03" style="stop-color:#F89938"/>
	<stop  offset="0.1585" style="stop-color:#F59537"/>
	<stop  offset="0.3344" style="stop-color:#EF8A34"/>
	<stop  offset="0.521" style="stop-color:#E67830"/>
	<stop  offset="0.715" style="stop-color:#DB5E2C"/>
	<stop  offset="0.9129" style="stop-color:#D03928"/>
	<stop  offset="1" style="stop-color:#CA2026"/>
</linearGradient>
<path style="fill:url(#SVGID_00000112634422981596418690000002011375918745400511_);" d="M173.48,84.8
	c8.73,6.65,11.4,15.87,9.09,26.76c20.47-8.19,29.9-55.43,17.13-85.67c12.69,3.37,21.7,10.18,27.35,19.85
	c5.55,9.49,9.46,19.77,14.28,30.12c9.04-6.02,8.82-15.28,8.98-26.71c4.2,3.54,7.52,5.53,9.65,8.28c8.16,10.56,7.17,22.55,5.77,34.52
	c-0.28,2.36-0.74,4.7-1.12,7.05c0.78,0.27,1.56,0.54,2.35,0.82c3.96-6.85,7.92-13.69,12.11-20.93
	c10.53,11.12,17.83,24.2,20.29,38.99c5.27,31.65-10.01,56.83-41.87,70.58c-7.62,3.29-12.56,1.03-12.56-6.88
	c0-5.23,1.82-10.67,3.85-15.67c8.76-21.59-0.2-46.45-21.62-58.85c-0.52-0.3-1.26-0.3-3.24-0.74c11.35,21.23,7.11,40-9.23,58.85
	c2.54-15.23-1.58-26.95-12.82-36.95c2.78,13.33-6.12,22.71-12.26,33.02c-5.33,8.95-5.78,18.34-2.44,27.95
	c0.82,2.35,1.61,4.71,1.38,8.37c-4.41-2.27-9.25-4.05-13.16-6.88c-18.57-13.41-24.23-35.22-15.31-57.39
	c3.39-8.44,7.43-16.73,9.89-25.38C172.09,100.41,172.39,92.49,173.48,84.8z"/>
<path d="M449.15,169.37c-33.91-43.58-80.48-59.59-136.07-57.52c-5.58,0.21-8.14-1.24-10.25-5.73c-2.41-5.12-5.94-9.81-9-14.7
	C355.13,79.65,424.01,110.56,449.15,169.37z"/>
<path d="M579.43,262.19c-1.19-5.33-2.62-10.61-3.85-15.93c-1.41-6.12-5.74-9.06-12.36-8.56c-7.11,0.53-14.17,2.57-21.22,2.46
	c-17.26-0.26-28.34,6.66-34.48,21.22c-0.96,2.27-4.76,4.53-7.62,5.03c-6.17,1.08-12.34,2.16-18.52,3.24
	c-5.87,1.02-11.75,2.02-17.63,3.04l0.02,0.02l-9.71,1.65c-34.79,6.01-69.58,11.96-104.39,17.88c-2.95,0.5-5.92,0.97-8.91,1.43
	l-35.93,6.12c-1.91,1-4.31,1.14-6.69,1.14l-19.85,3.38c0,0.01,0,0.01,0,0.02c-8.79,1.49-17.6,2.99-26.44,4.5
	c-35.69,6.07-71.74,12.2-107.7,18.32c-1.14-2.09-1.98-3.65-2.66-4.9c-6,2.58-11.55,6.99-17.11,7.01
	c-23.81,0.09-46.46,6.45-69.72,9.32c-5.83,0.72-8.95,4.01-7.9,9.07c1.08,5.19,5.64,5.92,10.81,4.7
	c23.16-5.46,46.37-10.75,69.49-16.37c8.56-2.08,17.05,0.69,21.2,7.71c30.88,52.26,94.23,78.01,158.84,64.36
	c52.72-11.14,91.97-39.34,121.21-79.94c3.48-4.83,6.44-9.97,9.64-14.97c-0.6-0.52-1.2-1.05-1.8-1.57c-2.33,1.76-5.01,3.25-6.94,5.33
	c-49.84,53.59-112.46,79.1-189.8,69.95c-37.04-4.38-68-20.15-90.78-47.71c-1.7-2.06-2.88-4.47-4.57-7.16c1.98-0.61,3-1.04,4.08-1.23
	c29.98-5.12,59.96-10.23,89.95-15.31l-0.07,0l26.1-4.41c4.4-0.74,8.81-1.5,13.21-2.24c0.34-0.06,0.68-0.11,1.03-0.17l65.91-11.14
	c2.28-0.39,4.55-0.77,6.83-1.15l5.68-0.96l0,0c42.13-7.08,84.3-13.94,126.24-21.83c16.55-3.11,30.45-3.42,42.38,8.67
	c1.24,1.26,4.24,2.18,6,1.76c13.6-3.16,27.12-6.61,40.61-10.14C578.43,272.17,580.73,267.99,579.43,262.19z M564.77,258.97
	c0.15,0.79,0.31,1.58,0.46,2.37c-7.44,1.15-14.87,2.31-22.31,3.46c-0.15-0.74-0.31-1.49-0.46-2.23
	C549.89,261.37,557.33,260.17,564.77,258.97z M563.04,252.13c-7.28,1.17-14.56,2.34-21.84,3.52c-0.12-0.78-0.25-1.56-0.37-2.34
	c7.26-1.13,14.52-2.26,21.79-3.4C562.75,250.65,562.9,251.39,563.04,252.13z M528.77,250.92c-0.14-0.75-0.27-1.51-0.41-2.26
	c11.01-1.71,22.02-3.41,33.04-5.12c0.09,0.81,0.18,1.61,0.26,2.42C550.7,247.62,539.73,249.27,528.77,250.92z M533.34,272.78
	c-0.14-0.75-0.29-1.5-0.43-2.25c11.04-1.73,22.08-3.46,33.13-5.18c0.15,0.8,0.3,1.61,0.46,2.41
	C555.45,269.44,544.39,271.11,533.34,272.78z"/>
</svg>
